<?xml version="1.0" encoding="UTF-8"?>
<svg version="1.1" xmlns="http://www.w3.org/2000/svg" width="1280" height="853">
<path d="M0 0 C1.03253906 0.52464844 2.06507813 1.04929687 3.12890625 1.58984375 C11.6259552 6.21739771 19.08442844 12.25834074 26 19 C26 19.66 26 20.32 26 21 C26.66 21 27.32 21 28 21 C46.60268893 41.22031405 56.28167972 69.15620228 55.32421875 96.4609375 C54.9113762 103.46882801 53.65761179 110.18937764 52 117 C51.74476563 118.08410156 51.48953125 119.16820312 51.2265625 120.28515625 C46.39883836 138.15659377 35.19760223 156.11363534 21 168 C20.34 168 19.68 168 19 168 C19 168.66 19 169.32 19 170 C12.59866082 175.30026566 5.49386997 179.51434017 -2 183.0625 C-2.62205322 183.36115967 -3.24410645 183.65981934 -3.88500977 183.9675293 C-7.38922976 185.55707728 -10.15050467 186.34266341 -14 186 C-14 184.68 -14 183.36 -14 182 C-14.66 182 -15.32 182 -16 182 C-17.7143618 180.04072937 -19.38405168 178.04119788 -21 176 C-20.47680176 175.73896484 -19.95360352 175.47792969 -19.41455078 175.20898438 C-9.53977687 170.24661174 -0.2713061 165.43629806 8 158 C8.99966797 157.21109375 8.99966797 157.21109375 10.01953125 156.40625 C27.0363481 142.71224354 36.49984902 121.30969803 39 100 C40.02052597 81.24106801 40.02052597 81.24106801 34 64 C33.5373877 64.33209473 33.07477539 64.66418945 32.59814453 65.00634766 C13.84349202 78.43980435 -3.98080569 88.61626536 -26.47143555 94.47827148 C-31.96257848 95.85106605 -31.96257848 95.85106605 -35.98828125 99.5625 C-36.32214844 100.366875 -36.65601563 101.17125 -37 102 C-40.23799368 104.72285832 -42.29638867 105.8994841 -46.5 106.5 C-51.49153773 105.78692318 -54.48948353 103.51051647 -58 100 C-59.19841651 95.08069351 -59.63863733 90.48568346 -57 86 C-54.78440813 83.15138188 -52.46968696 81.94627826 -49 81 C-45.52310127 81.24834991 -42.74513835 81.65352531 -39.57739258 83.12646484 C-36.46525488 84.18123691 -35.30391101 83.85622845 -32.26171875 82.7265625 C-31.36727051 82.40067139 -30.47282227 82.07478027 -29.55126953 81.73901367 C-28.60622559 81.37138916 -27.66118164 81.00376465 -26.6875 80.625 C-25.7063623 80.25286377 -24.72522461 79.88072754 -23.71435547 79.49731445 C-6.7265163 72.92482013 8.98120119 64.4415412 22.53491211 52.12353516 C24 51 24 51 26 51 C26 50.34 26 49.68 26 49 C26.66 49 27.32 49 28 49 C25.07370671 43.17438387 21.84588095 38.36825388 17.35546875 33.62890625 C16 32 16 32 16 30 C15.4225 29.74605469 14.845 29.49210937 14.25 29.23046875 C11.75329843 27.86508508 10.04674313 26.28559139 8 24.3125 C-8.40977695 9.51152471 -31.28553875 3.22149089 -53.06494141 4.08154297 C-68.86104232 5.12543925 -82.3824937 10.09321409 -95.8671875 18.20703125 C-99 20 -99 20 -101 20 C-101 20.66 -101 21.32 -101 22 C-102.50390625 23.48046875 -102.50390625 23.48046875 -104.5625 25.1875 C-120.97914934 39.26304265 -132.22694112 58.7880868 -133.91015625 80.7109375 C-133.95462891 81.84402344 -133.95462891 81.84402344 -134 83 C-134.05994141 84.47339844 -134.05994141 84.47339844 -134.12109375 85.9765625 C-134.44392035 101.89001505 -131.16218008 118.15738379 -123 132 C-122.4740625 132.89460937 -121.948125 133.78921875 -121.40625 134.7109375 C-118.05879118 140.18726268 -114.63702887 144.58916766 -110 149 C-110 149.66 -110 150.32 -110 151 C-109.40960938 151.26554688 -108.81921875 151.53109375 -108.2109375 151.8046875 C-105.94283948 153.03090304 -104.46647902 154.33351588 -102.625 156.125 C-89.45341446 167.81417462 -72.42543282 173.88654987 -55.20629883 176.0637207 C-51.47336356 176.53952163 -49.18304844 176.87796771 -46 179 C-45.27993205 181.97628085 -44.79968328 184.02470761 -45 187 C-46.75795653 189.53927054 -47.96251648 190.65938968 -50.89331055 191.62158203 C-54.60031758 192.28745999 -58.12825759 191.4740312 -61.8125 190.875 C-62.6569165 190.73811768 -63.50133301 190.60123535 -64.37133789 190.46020508 C-85.53853144 186.79431137 -105.40708589 176.93650722 -120 161 C-120.7940625 160.2265625 -121.588125 159.453125 -122.40625 158.65625 C-141.3508026 139.25520215 -150.22989509 113.57979666 -150.18334961 86.86816406 C-149.80893536 58.31834079 -136.95963567 34.03525519 -117.14453125 14.13671875 C-85.30307036 -15.39640596 -37.91760278 -19.48241062 0 0 Z " fill="#566DD0" transform="translate(469,325)"/>
<path d="M0 0 C0 0.66 0 1.32 0 2 C0.556875 2.226875 1.11375 2.45375 1.6875 2.6875 C5.22520917 4.69538899 8.45278432 7.1626819 9.64453125 11.1640625 C9.76183594 11.76992188 9.87914062 12.37578125 10 13 C8.78622542 14.03908742 7.55320279 15.055719 6.3125 16.0625 C5.28576172 16.91521484 5.28576172 16.91521484 4.23828125 17.78515625 C2 19 2 19 -0.453125 18.91796875 C-3.51151621 17.8156345 -5.5280955 16.28363981 -8.0625 14.25 C-20.0386089 5.22335229 -32.36753036 2.99266527 -47 4 C-58.22806105 5.79527263 -69.96953047 12.3354289 -76.83984375 21.4375 C-85.34964009 34.1032434 -87.70557073 45.91899936 -86 61 C-83.14531763 73.77371694 -75.55662751 84.06161913 -64.8125 91.34375 C-53.2996996 98.12351023 -40.49829769 99.81067766 -27.4140625 97.31640625 C-12.70221294 93.10553245 -2.96720529 85.39260357 4.49609375 72.15234375 C6.37364422 68.2168029 7.48765332 64.33644515 8.39453125 60.08203125 C8.59433594 59.39496094 8.79414063 58.70789063 9 58 C11.76452033 56.61773984 14.0461363 56.90474613 17.125 56.9375 C18.22070312 56.94652344 19.31640625 56.95554687 20.4453125 56.96484375 C21.28835938 56.97644531 22.13140625 56.98804688 23 57 C25.18779772 63.87818421 22.256703 71.3924183 19.24609375 77.65625 C10.8074544 93.52829894 -1.00903098 105.28500596 -18.1875 111.4375 C-23.45838925 113.00769929 -28.51227181 113.80185597 -34 114 C-34.87269531 114.03996094 -35.74539063 114.07992187 -36.64453125 114.12109375 C-55.63612268 114.58297795 -71.55251473 107.87059519 -85.3203125 94.90234375 C-97.18414313 82.05274294 -103.59093348 65.64747879 -103.25390625 48.14453125 C-101.73645631 29.35149733 -92.94055781 13.66038105 -78.99609375 1.2109375 C-71.26681465 -4.87879755 -62.50283066 -8.63627069 -53 -11 C-52.25492187 -11.185625 -51.50984375 -11.37125 -50.7421875 -11.5625 C-32.01972974 -14.54955879 -16.05350634 -9.2601786 0 0 Z " fill="#4166CC" transform="translate(461,366)"/>
<path d="M0 0 C1.6484375 2.29296875 1.6484375 2.29296875 1.3828125 5.74609375 C1.05796875 6.9990625 0.733125 8.25203125 0.3984375 9.54296875 C0.08390625 10.80625 -0.230625 12.06953125 -0.5546875 13.37109375 C-0.81765625 14.3353125 -1.080625 15.29953125 -1.3515625 16.29296875 C-4.99728289 15.72272426 -7.63312154 14.75128355 -10.7890625 12.85546875 C-17.10630657 9.0696427 -22.6031765 7.94862171 -29.8515625 7.98046875 C-30.95177734 7.95629883 -30.95177734 7.95629883 -32.07421875 7.93164062 C-36.88487903 7.92733771 -40.19859894 8.62231297 -44.3515625 11.29296875 C-46.70204788 14.81869682 -47.01554067 16.1431052 -46.3515625 20.29296875 C-41.07553265 26.30783223 -34.22849339 27.10867371 -26.6640625 28.73046875 C-4.2991349 33.53057245 -4.2991349 33.53057245 2.2734375 42.98046875 C6.20722192 49.56330453 6.27786971 55.75726651 5.6484375 63.29296875 C3.70291036 70.54640146 -0.22233949 74.87493279 -6.1015625 79.41796875 C-18.36754788 86.49449878 -33.94819027 86.96729592 -47.6015625 84.13671875 C-53.10270799 82.44886729 -58.22717115 79.88367852 -63.3515625 77.29296875 C-63.3515625 76.63296875 -63.3515625 75.97296875 -63.3515625 75.29296875 C-64.6715625 74.96296875 -65.9915625 74.63296875 -67.3515625 74.29296875 C-66.62431656 68.76589962 -65.01710277 63.59336734 -63.3515625 58.29296875 C-58.62974813 59.20796149 -54.65085297 61.61929711 -50.421875 63.8203125 C-41.42322182 68.1364604 -30.9688584 69.75177864 -21.23046875 67.0078125 C-18.19732767 65.85383159 -16.41685105 64.82461278 -14.3515625 62.29296875 C-13.70759077 59.49859141 -13.56808939 57.05943931 -14.3515625 54.29296875 C-17.16575819 50.72438494 -19.78484068 49.52005719 -24.1015625 48.29296875 C-25.24753906 47.96167969 -26.39351562 47.63039063 -27.57421875 47.2890625 C-30.18353062 46.60098129 -32.78431395 45.94380095 -35.41015625 45.328125 C-46.90532404 42.63209688 -57.0066025 39.92862589 -64.1015625 29.79296875 C-67.24099686 23.51410004 -67.16210038 16.45776612 -65.2890625 9.79296875 C-62.66861073 2.75657048 -58.11599615 -2.04537825 -51.5390625 -5.58203125 C-34.90691989 -13.05517248 -14.72390973 -10.68828663 0 0 Z " fill="#F0F0F1" transform="translate(634.3515625,369.70703125)"/>
<path d="M0 0 C5.77805634 5.64673688 8.08295321 12.16956556 8.35644531 20.22851562 C8.36263895 22.12110716 8.35255057 24.01380595 8.328125 25.90625 C8.32625183 26.91216187 8.32437866 27.91807373 8.32244873 28.95446777 C8.31576933 31.06212726 8.30193779 33.16977522 8.28125 35.27734375 C8.24982211 38.51834506 8.24024663 41.75886071 8.234375 45 C8.22521496 47.05208933 8.2148424 49.10417368 8.203125 51.15625 C8.19675018 52.61544861 8.19675018 52.61544861 8.19024658 54.10412598 C8.18063904 54.99595581 8.17103149 55.88778564 8.16113281 56.80664062 C8.15430481 57.59445923 8.14747681 58.38227783 8.14044189 59.19396973 C8 61 8 61 7 62 C4.64686445 62.07271741 2.29166332 62.08370868 -0.0625 62.0625 C-1.99802734 62.04896484 -1.99802734 62.04896484 -3.97265625 62.03515625 C-4.97167969 62.02355469 -5.97070312 62.01195312 -7 62 C-7.66 60.35 -8.32 58.7 -9 57 C-9.54527344 57.33773437 -10.09054687 57.67546875 -10.65234375 58.0234375 C-19.67439035 63.35955395 -27.60208976 65.09188727 -38 63 C-43.98701558 61.10067092 -48.99527544 57.60536548 -52 52 C-53.88544228 44.99844187 -53.30899413 38.44863029 -50 32 C-46.05457575 26.45174715 -40.32795945 24.80005125 -34 23 C-29.77984999 22.31716493 -25.57787353 22.00075068 -21.3125 21.75 C-20.21744141 21.67265625 -19.12238281 21.5953125 -17.99414062 21.515625 C-15.33004552 21.32948735 -12.6658943 21.15785534 -10 21 C-10.26737643 19.54060946 -10.55030549 18.08406208 -10.83984375 16.62890625 C-10.99573975 15.81752197 -11.15163574 15.0061377 -11.31225586 14.17016602 C-11.87004862 11.71528004 -11.87004862 11.71528004 -14.5625 9.9375 C-22.13801561 7.87145029 -27.90579981 8.81984129 -35 12 C-35.99 12.66 -36.98 13.32 -38 14 C-39.32 14 -40.64 14 -42 14 C-42 13.34 -42 12.68 -42 12 C-42.5775 11.731875 -43.155 11.46375 -43.75 11.1875 C-46.0325868 9.98280141 -47.9737942 8.59201885 -50 7 C-47.36710658 0.85658203 -43.31035499 -1.5531818 -37.4140625 -4.16796875 C-25.6323265 -8.22866417 -10.21960516 -7.57100334 0 0 Z M-33 37 C-35.34522935 39.88512978 -35.34522935 39.88512978 -34.875 43.5 C-34.33373027 46.97652369 -34.33373027 46.97652369 -32.24609375 48.6953125 C-27.88788137 51.22686543 -22.73201435 50.61973861 -17.93359375 49.53125 C-13.30199494 47.85066987 -11.09786851 45.3635665 -9 41 C-8.93848833 38.6674776 -8.93091498 36.33231038 -9 34 C-11.6881249 33.91835841 -14.373723 33.85920332 -17.0625 33.8125 C-17.81466797 33.78736328 -18.56683594 33.76222656 -19.34179688 33.73632812 C-24.66313494 33.66721984 -28.30528291 34.43435206 -33 37 Z " fill="#F1F1F2" transform="translate(764,391)"/>
<path d="M0 0 C5.94 0 11.88 0 18 0 C20.09994191 5.03526217 22.1996641 10.07061481 24.29882812 15.10620117 C25.01256635 16.81816901 25.72643219 18.53008364 26.44042969 20.24194336 C27.46843728 22.70672758 28.49598129 25.17170464 29.5234375 27.63671875 C29.84122162 28.39836838 30.15900574 29.16001801 30.48641968 29.94474792 C32.01764203 33.61960451 33.53464163 37.29821042 35 41 C39.31820782 31.73877106 43.21060882 22.31825963 47.07226562 12.86132812 C47.86382721 10.92493045 48.65834631 8.98976646 49.453125 7.0546875 C49.91879883 5.91499512 50.38447266 4.77530273 50.86425781 3.60107422 C52 1 52 1 53 0 C55.86267567 -0.07325168 58.700719 -0.09238205 61.5625 -0.0625 C62.36880859 -0.05798828 63.17511719 -0.05347656 64.00585938 -0.04882812 C66.00393756 -0.03700518 68.00197783 -0.01906914 70 0 C71 2 71 2 70.3984375 3.90087891 C70.06070313 4.66835449 69.72296875 5.43583008 69.375 6.2265625 C69.00141357 7.08596436 68.62782715 7.94536621 68.24291992 8.83081055 C67.83275635 9.75289307 67.42259277 10.67497559 67 11.625 C66.38185425 13.04002808 66.38185425 13.04002808 65.7512207 14.48364258 C64.50813146 17.32571033 63.25502598 20.16318676 62 23 C60.72696558 25.89486965 59.45707667 28.7911126 58.1875 31.6875 C57.89866943 32.34468018 57.60983887 33.00186035 57.31225586 33.67895508 C55.50861441 37.79471417 53.80043872 41.9358455 52.15625 46.1171875 C48.04539993 56.36653666 43.73837217 66.54546906 39.08984375 76.5625 C37.556624 79.99163665 36.21629397 83.48857986 34.89453125 87.00390625 C34 89 34 89 32 91 C29.25514407 91.14507695 26.61519457 91.18652423 23.875 91.125 C23.12089844 91.11597656 22.36679687 91.10695313 21.58984375 91.09765625 C19.72642746 91.0740687 17.86317407 91.03819719 16 91 C14.72821858 87.18465574 15.50162786 86.33627029 17.1953125 82.7734375 C17.66324219 81.74089844 18.13117187 80.70835937 18.61328125 79.64453125 C19.61356694 77.48112266 20.62901254 75.32465325 21.66015625 73.17578125 C24.76356102 66.5610954 24.76356102 66.5610954 24.15234375 59.546875 C23.46733743 58.016314 22.74609433 56.5017303 22 55 C21.1391851 52.93711859 20.28419187 50.8718026 19.43359375 48.8046875 C18.43849735 46.49323786 17.43963381 44.18340727 16.4375 41.875 C15.90749832 40.64469457 15.37788116 39.41422343 14.84863281 38.18359375 C12.26008728 32.17332652 9.64191408 26.17718591 6.98828125 20.1953125 C6.52558838 19.14746582 6.06289551 18.09961914 5.58618164 17.02001953 C4.71309968 15.04669159 3.83364376 13.07616815 2.94702148 11.10888672 C2.55716064 10.2273291 2.1672998 9.34577148 1.765625 8.4375 C1.42305664 7.67308594 1.08048828 6.90867187 0.72753906 6.12109375 C0 4 0 4 0 0 Z " fill="#F1F1F1" transform="translate(885,386)"/>
<path d="M0 0 C6.21693817 5.17268684 9.46791766 11.60772868 10.26226807 19.65789795 C10.34457815 22.56954515 10.33790781 25.46646054 10.29296875 28.37890625 C10.28872391 29.43158188 10.28447906 30.48425751 10.28010559 31.5688324 C10.26343768 34.90032542 10.2258075 38.23119268 10.1875 41.5625 C10.17243781 43.83397558 10.1587521 46.10546073 10.14648438 48.37695312 C10.11357309 53.91820644 10.06187342 59.45899746 10 65 C4.39 65 -1.22 65 -7 65 C-7.029729 63.03994019 -7.029729 63.03994019 -7.06005859 61.0402832 C-7.13621719 56.1852718 -7.22491906 51.33055608 -7.31738281 46.47583008 C-7.35563014 44.37595463 -7.3904904 42.27601462 -7.421875 40.17602539 C-7.4676175 37.15487619 -7.52559723 34.13416984 -7.5859375 31.11328125 C-7.59748871 30.17664139 -7.60903992 29.24000153 -7.62094116 28.27497864 C-7.79005694 20.67673812 -7.79005694 20.67673812 -11.5625 14.25 C-16.6420036 11.64512636 -21.39294787 11.5257879 -26.8125 13.125 C-30.35874145 15.21102438 -31.86021942 16.49011135 -34 20 C-34.59148221 23.35825936 -34.58117673 26.67462495 -34.57421875 30.078125 C-34.59546562 31.52889435 -34.59546562 31.52889435 -34.61714172 33.00897217 C-34.65899356 36.08942885 -34.67427914 39.16929913 -34.6875 42.25 C-34.71651892 45.34471148 -34.75099083 48.43927326 -34.78999329 51.53387451 C-34.81255185 53.45799997 -34.82832772 55.38221865 -34.83683777 57.30645752 C-34.84387222 58.17115662 -34.85090668 59.03585571 -34.8581543 59.92675781 C-34.86337349 61.07328827 -34.86337349 61.07328827 -34.86869812 62.24298096 C-35 64 -35 64 -36 65 C-41.28 65 -46.56 65 -52 65 C-52 42.89 -52 20.78 -52 -2 C-47.05 -2 -42.1 -2 -37 -2 C-36.67 -0.02 -36.34 1.96 -36 4 C-35.11248047 3.36771484 -35.11248047 3.36771484 -34.20703125 2.72265625 C-33.41683594 2.17480469 -32.62664063 1.62695312 -31.8125 1.0625 C-31.03519531 0.51722656 -30.25789062 -0.02804687 -29.45703125 -0.58984375 C-21.4817249 -5.16708634 -7.90348528 -4.60007542 0 0 Z " fill="#F0F1F1" transform="translate(836,388)"/>
<path d="M0 0 C1.02922713 0.96989253 2.04013845 1.96141163 3 3 C1.63629701 5.99220268 0.05091917 8.29026529 -2.125 10.75 C-2.66382813 11.36359375 -3.20265625 11.9771875 -3.7578125 12.609375 C-4.16773438 13.06828125 -4.57765625 13.5271875 -5 14 C-8.4919233 13.23059317 -10.93447555 11.83931467 -14 10 C-19.20242739 8.02666547 -24.58064824 8.55053861 -29.75 10.1875 C-34.1636416 12.64895397 -36.13828857 15.14732042 -38.25 19.6875 C-39.93704988 27.13863698 -39.66974379 34.19601151 -36 41 C-33.18039834 44.69465045 -30.50199248 45.96107866 -26 47 C-18.74570436 47.84633449 -14.25097292 45.54376718 -8 42 C-7.34 41.67 -6.68 41.34 -6 41 C-4.33333333 42.66666667 -2.66666667 44.33333333 -1 46 C-0.21625 46.680625 0.5675 47.36125 1.375 48.0625 C3 50 3 50 3.0625 52 C-0.11171388 57.97499084 -6.97459902 59.91315381 -13 62 C-22.41018255 64.82305477 -33.1035863 63.17365796 -41.65625 58.5703125 C-47.77359438 54.67921687 -47.77359438 54.67921687 -49 51 C-49.66 51 -50.32 51 -51 51 C-51.98669759 49.10807525 -52.9640602 47.21128022 -53.9375 45.3125 C-54.75541016 43.72888672 -54.75541016 43.72888672 -55.58984375 42.11328125 C-59.43819761 33.61705404 -59.15633856 22.72901287 -56 14 C-51.42665963 4.3857573 -45.00358131 -2.17510127 -35 -6 C-22.62041957 -9.13094214 -10.53494101 -7.00251503 0 0 Z " fill="#F0F0F1" transform="translate(704,392)"/>
<path d="M0 0 C5.61 0 11.22 0 17 0 C17.33 27.39 17.66 54.78 18 83 C19.98 83.99 21.96 84.98 24 86 C24 88.97 24 91.94 24 95 C18.50751703 97.45716344 13.76877284 97.16726006 8 96 C3.76651748 94.19851808 2.04223424 92.08446849 0 88 C-1.23950484 84.28148547 -1.13953327 80.83659846 -1.12939453 76.96435547 C-1.13114685 76.14622375 -1.13289917 75.32809204 -1.13470459 74.48516846 C-1.13910843 71.77915328 -1.13619081 69.07320335 -1.1328125 66.3671875 C-1.13348583 64.49056994 -1.1344561 62.61395247 -1.13571167 60.73733521 C-1.13718654 56.80486216 -1.13504033 52.87241182 -1.13037109 48.93994141 C-1.12466608 43.88774756 -1.12795902 38.83560675 -1.13394356 33.78341484 C-1.13754815 29.90938921 -1.1364112 26.03537626 -1.13381577 22.16135025 C-1.13314662 20.2977307 -1.13397449 18.43411002 -1.13629532 16.57049179 C-1.13882102 13.97258172 -1.1349828 11.37475899 -1.12939453 8.77685547 C-1.13141876 7.99970184 -1.13344299 7.22254822 -1.13552856 6.42184448 C-1.11426422 1.11426422 -1.11426422 1.11426422 0 0 Z " fill="#F0F0F0" transform="translate(858,358)"/>
<path d="M0 0 C3.1875 2.0625 3.1875 2.0625 5 4 C5 4.99 5 5.98 5 7 C2.3125 9.3125 2.3125 9.3125 -1 11 C-3.5 10.375 -3.5 10.375 -6 9 C-13.3733986 6.05064056 -19.67181147 6.36949102 -27.01953125 9 C-29.81422038 10.41112508 -31.2713673 12.4416236 -33 15 C-33.66 15 -34.32 15 -35 15 C-37.10849572 22.21419198 -37.98731739 29.1002347 -35.09375 36.234375 C-32.24722931 41.35041894 -28.5580958 45.00614341 -23 47 C-19.56185173 47.39454161 -16.21816757 47.56239192 -12.7578125 47.56640625 C-10 48 -10 48 -8.6171875 49.83984375 C-8 52 -8 52 -8 55 C-13.26209841 58.16488528 -19.07186969 57.64956445 -25 57 C-33.76725962 54.36369116 -41.08102364 48.05064957 -45.5 40.0625 C-48.46353302 32.40781381 -48.28790786 22.81727073 -46.1875 14.9609375 C-42.51982303 6.7341343 -35.89704537 0.87972139 -27.625 -2.5 C-17.75136125 -5.58035526 -9.26804016 -4.42991153 0 0 Z " fill="#328CDB" transform="translate(439,392)"/>
<path d="M0 0 C1.09570312 0.00902344 2.19140625 0.01804687 3.3203125 0.02734375 C4.58488281 0.04474609 4.58488281 0.04474609 5.875 0.0625 C8.06279772 6.94068421 5.131703 14.4549183 2.12109375 20.71875 C-6.3175456 36.59079894 -18.13403098 48.34750596 -35.3125 54.5 C-43.55024372 56.96048398 -51.58567941 57.20023098 -60.125 57.0625 C-60.62 55.5775 -60.62 55.5775 -61.125 54.0625 C-59.82046875 53.96453125 -58.5159375 53.8665625 -57.171875 53.765625 C-42.15020644 52.52976509 -30.60205208 49.98338903 -18.125 41.0625 C-17.53976562 40.65128906 -16.95453125 40.24007812 -16.3515625 39.81640625 C-11.24895894 35.91520935 -6.16947431 30.19592294 -4.125 24.0625 C-3.465 24.0625 -2.805 24.0625 -2.125 24.0625 C0.29580258 17.1459212 2.17477612 10.18897031 3.875 3.0625 C-0.26260567 2.97823167 -0.26260567 2.97823167 -4.125 4.0625 C-6.09599266 6.81467878 -7.03327775 9.8783101 -8.125 13.0625 C-13.38205023 25.66968527 -22.97157444 35.61038999 -35.328125 41.41796875 C-37.66142553 42.25491351 -39.67379697 42.36890038 -42.125 42.0625 C-42.125 41.4025 -42.125 40.7425 -42.125 40.0625 C-40.53171875 39.33546875 -40.53171875 39.33546875 -38.90625 38.59375 C-25.62921795 32.37048465 -17.53435528 25.66533382 -11.125 12.0625 C-10.16459523 9.10125195 -9.37921186 6.18796368 -8.73046875 3.14453125 C-8.43076172 2.11392578 -8.43076172 2.11392578 -8.125 1.0625 C-5.36047967 -0.31976016 -3.0788637 -0.03275387 0 0 Z " fill="#7547C1" transform="translate(478.125,422.9375)"/>
<path d="M0 0 C-0.33 0.99 -0.66 1.98 -1 3 C-2.38251953 2.76023437 -2.38251953 2.76023437 -3.79296875 2.515625 C-16.24778629 0.7537697 -29.68334056 1.24162221 -42.0625 3.3125 C-43.12174683 3.48894043 -43.12174683 3.48894043 -44.20239258 3.66894531 C-48.8399678 4.54546104 -52.73696179 6.06085627 -57 8 C-58.2877028 8.44903289 -59.57866562 8.88903077 -60.875 9.3125 C-65.0211118 10.80993067 -68.31566499 13.1567428 -71.82421875 15.79296875 C-74.40259605 17.22334323 -76.09583907 17.22887433 -79 17 C-79.2578125 17.59554688 -79.515625 18.19109375 -79.78125 18.8046875 C-81.10811394 21.1947437 -82.39109343 22.40503112 -84.5 24.125 C-87.89850881 27.00783014 -91.13525302 29.99892391 -94.3125 33.125 C-95.54419922 34.33542969 -95.54419922 34.33542969 -96.80078125 35.5703125 C-98.945177 37.93943178 -100.4333718 40.22658537 -102 43 C-102.99275289 44.4632764 -103.99267165 45.92171899 -105 47.375 C-107.54137609 51.15255163 -109.29947368 54.78917292 -111 59 C-111.495 59.78375 -111.99 60.5675 -112.5 61.375 C-114.25905959 64.45335428 -115.18232764 67.51692856 -116.15625 70.9140625 C-117.08137413 73.20117492 -118.15598434 74.39160857 -120 76 C-116.99968873 54.58288441 -102.01724573 32.57472316 -84.8984375 19.66015625 C-81.65902205 17.34478178 -78.33916498 15.16860899 -75 13 C-74.18917969 12.443125 -73.37835938 11.88625 -72.54296875 11.3125 C-62.50050165 4.74298149 -49.86723162 0.59194571 -38 -1 C-37.21882813 -1.10957031 -36.43765625 -1.21914063 -35.6328125 -1.33203125 C-23.54887241 -2.77978765 -11.95919012 -1.8525993 0 0 Z " fill="#2FAEEC" transform="translate(442,315)"/>
<path d="M0 0 C2.97 0.66 5.94 1.32 9 2 C9 2.66 9 3.32 9 4 C10.134375 3.896875 11.26875 3.79375 12.4375 3.6875 C17.43002629 3.6875 21.91993342 4.8347986 26.6875 6.1875 C27.41187256 6.3836792 28.13624512 6.5798584 28.88256836 6.78198242 C33.95067024 8.29584613 37.23687356 10.25418856 41 14 C42.31189483 18.16719533 42.14221358 20.47558741 41 24.6875 C38.0184343 29.62571819 34.46236099 31.179213 29 33 C15.00614457 33.98913694 4.06251614 31.43245944 -8 24 C-8.45375 25.0725 -8.9075 26.145 -9.375 27.25 C-10.50088537 29.88062317 -11.67920206 32.46000396 -13 35 C-13 34.34 -13 33.68 -13 33 C-13.66 32.67 -14.32 32.34 -15 32 C-13.68 28.04 -12.36 24.08 -11 20 C-6.24820077 21.18794981 -2.39743084 23.27525019 1.9296875 25.52734375 C10.92834068 29.84349165 21.3827041 31.45880989 31.12109375 28.71484375 C34.15423483 27.56086284 35.93471145 26.53164403 38 24 C38.64397173 21.20562266 38.78347311 18.76647056 38 16 C35.18580431 12.43141619 32.56672182 11.22708844 28.25 10 C27.11046875 9.67257812 25.9709375 9.34515625 24.796875 9.0078125 C20.03570994 7.74404647 15.26347324 6.52898212 10.46972656 5.39453125 C6.83794485 4.52363548 3.4266551 3.48927703 0 2 C0 1.34 0 0.68 0 0 Z " fill="#FCFCFD" transform="translate(582,408)"/>
<path d="M0 0 C0.33 0 0.66 0 1 0 C0.04747448 27.81374506 -11.89902349 52.00977268 -31.3359375 71.6015625 C-33 73 -33 73 -35 73 C-35 73.66 -35 74.32 -35 75 C-37.13770618 76.62677091 -39.2675534 78.13979644 -41.5 79.625 C-42.12003906 80.04523438 -42.74007813 80.46546875 -43.37890625 80.8984375 C-44.91517264 81.93837167 -46.45707524 82.96997056 -48 84 C-48.33 83.01 -48.66 82.02 -49 81 C-42.25 77 -42.25 77 -40 77 C-39.731875 76.360625 -39.46375 75.72125 -39.1875 75.0625 C-38 73 -38 73 -35 72 C-34.30996999 70.67860649 -33.64610762 69.34341623 -33 68 C-31.85256778 66.81404487 -30.65976174 65.67117782 -29.4375 64.5625 C-13.56119166 49.00256737 -4.96770746 27.33504282 -2.45703125 5.5390625 C-2 3 -2 3 0 0 Z " fill="#9E49C1" transform="translate(523,420)"/>
<path d="M0 0 C2.65083081 2.65083081 3.12177077 5.46875113 4 9 C4.17370117 9.62285889 4.34740234 10.24571777 4.52636719 10.88745117 C6.26493989 17.66967874 6.29720494 24.27940325 6.25 31.25 C6.25773437 32.40757812 6.26546875 33.56515625 6.2734375 34.7578125 C6.27085937 35.87414062 6.26828125 36.99046875 6.265625 38.140625 C6.26336914 39.14641602 6.26111328 40.15220703 6.25878906 41.18847656 C5.98675628 44.1438818 5.15315055 46.28555489 4 49 C4.020625 49.9075 4.04125 50.815 4.0625 51.75 C3.77695374 66.59840569 -7.94527051 82.43541543 -17.6484375 92.83984375 C-20 95 -20 95 -22 95 C-22.33 95.99 -22.66 96.98 -23 98 C-23.66 97.34 -24.32 96.68 -25 96 C-24.02160156 94.96552734 -24.02160156 94.96552734 -23.0234375 93.91015625 C-4.77245241 74.28630945 4.05510399 52.22263813 3.15380859 25.28710938 C2.73712136 19.0910364 1.30894118 13.05639624 0 7 C-0.38706624 5.00970082 -0.73775349 3.01055661 -1 1 C-0.67 0.67 -0.34 0.34 0 0 Z " fill="#9549CF" transform="translate(505,385)"/>
<path d="M0 0 C0.99 0 1.98 0 3 0 C3.00808685 1.05156281 3.01617371 2.10312561 3.02450562 3.18655396 C3.10203842 13.10347338 3.18979581 23.02025682 3.28752708 32.93699837 C3.33744236 38.03511974 3.3837729 43.13322088 3.421875 48.23144531 C3.45878793 53.1528249 3.50516435 58.07403316 3.55806351 62.99526596 C3.57657551 64.87146876 3.59169523 66.74770825 3.60334396 68.62396622 C3.62026107 71.25485981 3.64930926 73.88536379 3.68115234 76.51611328 C3.68331253 77.2893544 3.68547272 78.06259552 3.68769836 78.85926819 C3.75580577 83.27297848 4.37094065 86.89481101 6 91 C6.66 91 7.32 91 8 91 C7.67 91.99 7.34 92.98 7 94 C2.69555334 91.05485229 1.26694487 89.03134975 0 84 C-0.17423527 81.16706853 -0.2536861 78.43752095 -0.22705078 75.60791016 C-0.22734283 74.78773407 -0.22763489 73.96755798 -0.22793579 73.12252808 C-0.22654919 70.42792966 -0.21101971 67.73361226 -0.1953125 65.0390625 C-0.19157999 63.16433869 -0.18873414 61.28961293 -0.18673706 59.41488647 C-0.17911939 54.49280361 -0.15948695 49.57083973 -0.1373291 44.64880371 C-0.11683044 39.62135426 -0.10772675 34.59388549 -0.09765625 29.56640625 C-0.07623927 19.71088537 -0.04212589 9.8554526 0 0 Z " fill="#FAFAFA" transform="translate(857,359)"/>
<path d="M0 0 C4.24172911 5.85287246 4.54523624 10.42635109 4.390625 17.52734375 C4.38496521 18.51626114 4.37930542 19.50517853 4.37347412 20.52406311 C4.35120015 23.66238143 4.30101998 26.79953057 4.25 29.9375 C4.22992342 32.07355114 4.21167468 34.2096203 4.1953125 36.34570312 C4.15136511 41.5641966 4.0845437 46.78201474 4 52 C3.67 52 3.34 52 3 52 C3 37.81 3 23.62 3 9 C2.34 9 1.68 9 1 9 C0.7525 8.236875 0.505 7.47375 0.25 6.6875 C-1.20709398 3.55474795 -1.93151551 2.57358179 -5 1 C-11.06428324 -0.5278233 -15.4869431 -0.24297465 -21 3 C-24.26447616 5.99858288 -25.26194882 8.29614379 -25.54589844 12.60668945 C-25.58699557 14.4418819 -25.60696708 16.27763028 -25.609375 18.11328125 C-25.62591125 19.08283249 -25.64244751 20.05238373 -25.65948486 21.05131531 C-25.70794745 24.13844143 -25.72933225 27.22507499 -25.75 30.3125 C-25.77816109 32.40952997 -25.80808871 34.506537 -25.83984375 36.60351562 C-25.91370622 41.73563654 -25.96329171 46.86748429 -26 52 C-26.66 52 -27.32 52 -28 52 C-28.10164192 45.7013125 -28.17156661 39.40283747 -28.21972656 33.10351562 C-28.23980888 30.96183366 -28.26708037 28.8202063 -28.30175781 26.67871094 C-28.35042398 23.59556585 -28.3730029 20.51314738 -28.390625 17.4296875 C-28.42159271 15.99965897 -28.42159271 15.99965897 -28.45318604 14.54074097 C-28.45514847 8.69171703 -27.86363786 5.46915981 -24 1 C-17.06159628 -4.15932584 -7.18238263 -5.06031504 0 0 Z " fill="#FDFDFD" transform="translate(827,400)"/>
<path d="M0 0 C0.99 0 1.98 0 3 0 C4.21875 1.765625 4.21875 1.765625 5.5 4.25 C8.0872606 8.80202241 11.02697585 12.55274768 14.5625 16.375 C15.02140625 16.87418945 15.4803125 17.37337891 15.953125 17.88769531 C18.13491588 20.20545741 20.33241305 22.26062646 22.83984375 24.2265625 C23.55269531 24.81179688 24.26554687 25.39703125 25 26 C25 26.66 25 27.32 25 28 C25.6909375 28.24105469 26.381875 28.48210937 27.09375 28.73046875 C30.50920834 30.22243644 33.43672861 32.2214097 36.5 34.3125 C43.00705204 38.62010644 49.56344508 41.57212731 57 44 C57.92039062 44.30679688 58.84078125 44.61359375 59.7890625 44.9296875 C64.51504801 46.42886719 69.07166098 47.46431098 74 48 C71 50 71 50 68 51 C65.39380801 50.35870107 62.91716197 49.64997977 60.375 48.8125 C59.65151367 48.57837402 58.92802734 48.34424805 58.18261719 48.10302734 C44.77465205 43.68688795 32.86812612 37.04653812 22 28 C21.01966797 27.23816406 21.01966797 27.23816406 20.01953125 26.4609375 C11.87627849 19.8618145 5.52940487 10.83943852 0 2 C0 1.34 0 0.68 0 0 Z " fill="#453FBD" transform="translate(333,464)"/>
<path d="M0 0 C0.495 1.485 0.495 1.485 1 3 C-6.69172313 18.17556185 -20.24973403 29.72936559 -36.1875 35.4375 C-44.42524372 37.89798398 -52.46067941 38.13773098 -61 38 C-61.495 36.515 -61.495 36.515 -62 35 C-60.69546875 34.90203125 -59.3909375 34.8040625 -58.046875 34.703125 C-43.02520644 33.46726509 -31.47705208 30.92088903 -19 22 C-18.41476562 21.58878906 -17.82953125 21.17757813 -17.2265625 20.75390625 C-12.12395894 16.85270935 -7.04447431 11.13342294 -5 5 C-4.34 5 -3.68 5 -3 5 C-2.814375 4.0409375 -2.814375 4.0409375 -2.625 3.0625 C-2.41875 2.381875 -2.2125 1.70125 -2 1 C-1.34 0.67 -0.68 0.34 0 0 Z " fill="#643BBE" transform="translate(479,442)"/>
<path d="M0 0 C1.1725131 0.95117134 2.33787015 1.91117009 3.5 2.875 C4.47453125 3.67550781 4.47453125 3.67550781 5.46875 4.4921875 C5.9740625 4.98976563 6.479375 5.48734375 7 6 C7 6.66 7 7.32 7 8 C7.88558594 8.39832031 7.88558594 8.39832031 8.7890625 8.8046875 C11.05716052 10.03090304 12.53352098 11.33351588 14.375 13.125 C26.35176815 23.7538293 43.20688278 30.798075 59 33 C59 34.32 59 35.64 59 37 C52.69874291 36.63232102 47.73579743 35.8175847 42 33 C40.78570312 32.4740625 40.78570312 32.4740625 39.546875 31.9375 C25.67478351 25.91304884 12.29689384 18.20217316 3 6 C2.401875 5.443125 1.80375 4.88625 1.1875 4.3125 C0 3 0 3 0 0 Z " fill="#304BC1" transform="translate(352,468)"/>
<path d="M0 0 C0 0.66 0 1.32 0 2 C-0.83144531 2.38091797 -0.83144531 2.38091797 -1.6796875 2.76953125 C-2.40414062 3.11371094 -3.12859375 3.45789063 -3.875 3.8125 C-4.59429688 4.14894531 -5.31359375 4.48539062 -6.0546875 4.83203125 C-8.30542806 5.99467097 -8.30542806 5.99467097 -10 9 C-10.66721536 11.91440699 -10.66721536 11.91440699 -10 15 C-4.72397015 21.01486348 2.12306911 21.81570496 9.6875 23.4375 C31.91638061 28.20840442 31.91638061 28.20840442 38.1875 36.875 C38.785625 37.90625 39.38375 38.9375 40 40 C39.34 40.66 38.68 41.32 38 42 C36.88625 40.453125 36.88625 40.453125 35.75 38.875 C27.98856861 30.04548173 16.9607646 27.9732678 5.91796875 25.82373047 C-0.71407561 24.49472727 -6.78681487 22.81153699 -12 18.25 C-13.98016478 13.79462925 -13.60916276 9.61248967 -11.9375 5.1875 C-8.71580492 1.55010233 -4.82575379 0 0 0 Z " fill="#FCFDFD" transform="translate(598,375)"/>
<path d="M0 0 C-0.33 0.99 -0.66 1.98 -1 3 C-2.38251953 2.76023437 -2.38251953 2.76023437 -3.79296875 2.515625 C-16.24778629 0.7537697 -29.68334056 1.24162221 -42.0625 3.3125 C-43.12174683 3.48894043 -43.12174683 3.48894043 -44.20239258 3.66894531 C-48.84184136 4.54581515 -52.73980536 6.04826011 -57 8 C-58.39081311 8.55442976 -59.78570123 9.09896417 -61.1875 9.625 C-62.13689453 9.98464844 -62.13689453 9.98464844 -63.10546875 10.3515625 C-65.05140353 11.01759378 -66.99860035 11.52960452 -69 12 C-69.33 11.34 -69.66 10.68 -70 10 C-47.74853382 -2.01185343 -24.63783552 -3.81664949 0 0 Z " fill="#53ABF1" transform="translate(442,315)"/>
<path d="M0 0 C2.27689907 2.19256948 4.26876569 4.35323491 6.1875 6.875 C12.61484936 14.63484861 23.14477642 19.53098693 33 21 C35.65733875 21.0934328 38.28154126 21.13979643 40.9375 21.125 C41.62779297 21.12886719 42.31808594 21.13273437 43.02929688 21.13671875 C47.12408324 21.12895612 50.98358696 20.79196877 55 20 C55 20.66 55 21.32 55 22 C55.66 22.33 56.32 22.66 57 23 C53.72950031 26.27049969 43.55138073 25.74525469 39 26 C25.47971488 25.85462059 13.49613225 18.10178492 3.953125 9.078125 C0.40277778 5.30055556 0.40277778 5.30055556 -1 3 C-0.67 2.01 -0.34 1.02 0 0 Z " fill="#494AC2" transform="translate(381,443)"/>
<path d="M0 0 C0 0.99 0 1.98 0 3 C-1.6396875 3.4021875 -1.6396875 3.4021875 -3.3125 3.8125 C-7.33934653 5.08299998 -7.33934653 5.08299998 -10 8 C-10.47307456 10.17495081 -10.47307456 10.17495081 -10.375 12.5 C-10.38273437 13.2734375 -10.39046875 14.046875 -10.3984375 14.84375 C-9.90944554 17.49005943 -9.07463075 18.3402954 -7 20 C-4.27157939 21.36421031 -2.39046682 20.87807211 0.625 20.5625 C1.62789063 20.46066406 2.63078125 20.35882813 3.6640625 20.25390625 C4.82035156 20.12822266 4.82035156 20.12822266 6 20 C6.12375 19.0925 6.2475 18.185 6.375 17.25 C8.55337453 12.89325095 10.9089614 12.18976398 15.37890625 10.61328125 C18.99847998 9.76637652 21.42707346 10.06793221 25 11 C21.95605623 13.02929584 20.01746941 13.54187162 16.5 14.3125 C12.16517536 15.31953731 12.16517536 15.31953731 9.1875 18.4375 C8.795625 19.283125 8.40375 20.12875 8 21 C4.76200632 23.72285832 2.70361133 24.8994841 -1.5 25.5 C-6.49153773 24.78692318 -9.48948353 22.51051647 -13 19 C-14.19841651 14.08069351 -14.63863733 9.48568346 -12 5 C-8.82272445 0.91493144 -5.03016046 0 0 0 Z " fill="#4435C0" transform="translate(424,406)"/>
<path d="M0 0 C0.05447047 1.41623216 0.09300508 2.83308191 0.125 4.25 C0.14820313 5.03890625 0.17140625 5.8278125 0.1953125 6.640625 C-0.0171622 9.20731941 -0.71345895 10.7916067 -2 13 C-2.66 13 -3.32 13 -4 13 C-4.2475 13.61875 -4.495 14.2375 -4.75 14.875 C-6.28591115 17.48604896 -7.15666439 18.00099019 -10 19 C-15.35559639 20.13291462 -19.701866 20.19635284 -25 19 C-27.93193843 16.98429233 -29.60772665 15.59160087 -30.4765625 12.06640625 C-30.76481209 8.05366851 -30.30136156 6.3960752 -27.8125 3.125 C-22.88470601 -0.59822212 -18.6233102 -1.33361491 -12.5 -1.75 C-10.56640625 -1.89695312 -10.56640625 -1.89695312 -8.59375 -2.046875 C-5.13006852 -2.00169655 -3.06460747 -1.53230373 0 0 Z M-26 4 C-28.34522935 6.88512978 -28.34522935 6.88512978 -27.875 10.5 C-27.33373027 13.97652369 -27.33373027 13.97652369 -25.24609375 15.6953125 C-20.88788137 18.22686543 -15.73201435 17.61973861 -10.93359375 16.53125 C-6.30199494 14.85066987 -4.09786851 12.3635665 -2 8 C-1.93848833 5.6674776 -1.93091498 3.33231038 -2 1 C-4.6881249 0.91835841 -7.373723 0.85920332 -10.0625 0.8125 C-10.81466797 0.78736328 -11.56683594 0.76222656 -12.34179688 0.73632812 C-17.66313494 0.66721984 -21.30528291 1.43435206 -26 4 Z " fill="#FDFDFD" transform="translate(757,424)"/>
<path d="M0 0 C0.66 0.33 1.32 0.66 2 1 C0.88602974 4.34191079 0.31204774 4.76964083 -2.46484375 6.70703125 C-3.53303345 7.45871582 -3.53303345 7.45871582 -4.62280273 8.22558594 C-5.38665283 8.74926758 -6.15050293 9.27294922 -6.9375 9.8125 C-7.71875244 10.35293945 -8.50000488 10.89337891 -9.30493164 11.45019531 C-11.52876406 12.97877704 -13.76171682 14.49268287 -16 16 C-16.8971875 16.60714844 -17.794375 17.21429688 -18.71875 17.83984375 C-28.31547989 23.93917384 -43.39453916 32.68267417 -55 32 C-55 31.34 -55 30.68 -55 30 C-54.30777344 29.79246094 -53.61554688 29.58492188 -52.90234375 29.37109375 C-33.1801179 23.16080129 -16.00854174 12.93101432 0 0 Z " fill="#744ED4" transform="translate(502,385)"/>
<path d="M0 0 C5.47932789 1.54545146 10.11429181 4.15543212 15 7 C15 7.66 15 8.32 15 9 C15.556875 9.226875 16.11375 9.45375 16.6875 9.6875 C20.22520917 11.69538899 23.45278432 14.1626819 24.64453125 18.1640625 C24.76183594 18.76992188 24.87914062 19.37578125 25 20 C23.78622542 21.03908742 22.55320279 22.055719 21.3125 23.0625 C20.28576172 23.91521484 20.28576172 23.91521484 19.23828125 24.78515625 C17 26 17 26 14.578125 25.92578125 C11.39805356 24.7838465 9.12684753 23.16725835 6.4375 21.125 C5.50808594 20.42632812 4.57867187 19.72765625 3.62109375 19.0078125 C2.75613281 18.34523438 1.89117187 17.68265625 1 17 C-0.33253205 15.99893252 -1.66553715 14.9984922 -3 14 C-2.01 13.67 -1.02 13.34 0 13 C2.62890625 14.36328125 2.62890625 14.36328125 5.5625 16.3125 C6.53316406 16.94800781 7.50382812 17.58351563 8.50390625 18.23828125 C11 20 11 20 13 22 C16.59679066 21.67673447 16.59679066 21.67673447 20 21 C20 20.34 20 19.68 20 19 C20.66 19 21.32 19 22 19 C20.97684977 15.36346031 20.97684977 15.36346031 18.22265625 13.05078125 C17.48917969 12.70402344 16.75570313 12.35726563 16 12 C14.38130848 10.87477892 12.77801549 9.7272082 11.1875 8.5625 C7.22876904 5.74740243 3.54650974 3.68023186 -1 2 C-0.67 1.34 -0.34 0.68 0 0 Z " fill="#646DE5" transform="translate(446,359)"/>
<path d="M0 0 C16.49561086 0.27041985 33.72664282 10.42997552 45 22 C45.928125 22.721875 46.85625 23.44375 47.8125 24.1875 C48.534375 24.785625 49.25625 25.38375 50 26 C50 26.66 50 27.32 50 28 C45.90273491 26.63424497 43.50203862 24.82518517 40.4375 21.8125 C28.45984497 10.77392148 13.68362324 5.47583001 -2 2 C-1.34 1.34 -0.68 0.68 0 0 Z " fill="#6E77ED" transform="translate(437,328)"/>
<path d="M0 0 C-0.33 0.66 -0.66 1.32 -1 2 C-2.134375 1.96519531 -3.26875 1.93039062 -4.4375 1.89453125 C-16.06986373 1.63781168 -23.34313757 2.11249149 -32.3359375 10.28125 C-34.19682406 12.09997583 -34.19682406 12.09997583 -36 15 C-36.66 15 -37.32 15 -38 15 C-38 16.98 -38 18.96 -38 21 C-39.32 20.67 -40.64 20.34 -42 20 C-38.44578557 11.28413748 -33.82214226 5.04887331 -25.359375 0.6171875 C-17.0755291 -2.76735525 -8.36746033 -3.61836122 0 0 Z " fill="#44B4F2" transform="translate(434,390)"/>
<path d="M0 0 C0.72058594 0.73347656 1.44117188 1.46695312 2.18359375 2.22265625 C14.92582327 14.78815581 27.65810433 20.56938906 45 24 C45.495 25.485 45.495 25.485 46 27 C27.94690898 26.30162124 13.20022076 17.9639585 1 5 C-0.33984375 2.6640625 -0.33984375 2.6640625 -1 1 C-0.67 0.67 -0.34 0.34 0 0 Z " fill="#3549C0" transform="translate(372,453)"/>
<path d="M0 0 C1.670625 0.99 1.670625 0.99 3.375 2 C4.365 2 5.355 2 6.375 2 C8.08032323 0.05990478 8.08032323 0.05990478 9.375 -2 C10.365 -1.67 11.355 -1.34 12.375 -1 C10.395 1.31 8.415 3.62 6.375 6 C2.66662318 5.0729058 0.58473168 3.92583901 -2.625 2 C-7.82742739 0.02666547 -13.20564824 0.55053861 -18.375 2.1875 C-24.83506216 5.79022698 -26.933809 11.42948581 -29.625 18 C-29.955 18 -30.285 18 -30.625 18 C-30.2769473 11.50301636 -28.86740623 7.01981052 -24.625 2 C-17.81132841 -3.67805966 -7.86176958 -4.06893804 0 0 Z " fill="#FDFDFD" transform="translate(692.625,400)"/>
<path d="M0 0 C0.66 0.33 1.32 0.66 2 1 C-1.15708468 4.26232083 -4.44976142 7.26858044 -7.875 10.25 C-16.18524096 17.72057322 -22.2635904 26.11733861 -25.94921875 36.734375 C-26.46935547 37.85585938 -26.46935547 37.85585938 -27 39 C-28.485 39.495 -28.485 39.495 -30 40 C-25.93952097 24.18724019 -16.04588635 9.27952844 -1.828125 0.6875 C-1.22484375 0.460625 -0.6215625 0.23375 0 0 Z " fill="#40A3EB" transform="translate(390,362)"/>
<path d="M0 0 C0.33 0 0.66 0 1 0 C1.15855469 0.72445313 1.31710937 1.44890625 1.48046875 2.1953125 C2.97203917 8.37585292 4.2383542 12.68129799 9 17 C13.43821468 19.16979385 18.12478095 19.87240762 23 19 C26.48246423 17.5804618 29.73143451 15.85299717 33 14 C33.66 13.67 34.32 13.34 35 13 C37.5 15.3125 37.5 15.3125 40 18 C40 18.99 40 19.98 40 21 C38.02 19.68 36.04 18.36 34 17 C33.40574219 17.3609375 32.81148437 17.721875 32.19921875 18.09375 C25.73150979 21.71486233 20.39948231 23.21619755 13 22 C6.71783136 19.88228213 2.79798838 15.18734303 -0.375 9.5625 C-1.20475484 6.16050516 -0.6676554 3.40504256 0 0 Z " fill="#FDFDFD" transform="translate(663,420)"/>
<path d="M0 0 C0.99 0 1.98 0 3 0 C5.25725695 2.7732014 6.84772103 4.89028888 7.33984375 8.4765625 C6.66331068 13.50001492 1.79216925 16.05621363 -2 19 C-20.70201236 33.21132266 -20.70201236 33.21132266 -29 35 C-27.68778117 31.06334351 -26.2249411 30.76054011 -22.625 28.8125 C-15.05131541 24.54779427 -8.03882124 19.65827535 -1.4375 14 C1 12 1 12 3 12 C3 11.34 3 10.68 3 10 C3.66 10 4.32 10 5 10 C3.35 6.7 1.7 3.4 0 0 Z " fill="#6F59D4" transform="translate(492,364)"/>
<path d="M0 0 C0.99 0 1.98 0 3 0 C-0.13888917 8.92522527 -7.82500171 16.9703066 -15 23 C-15.66 23 -16.32 23 -17 23 C-17 23.66 -17 24.32 -17 25 C-19.13770618 26.62677091 -21.2675534 28.13979644 -23.5 29.625 C-24.12003906 30.04523438 -24.74007813 30.46546875 -25.37890625 30.8984375 C-26.91517264 31.93837167 -28.45707524 32.96997056 -30 34 C-30.495 32.515 -30.495 32.515 -31 31 C-24.25 27 -24.25 27 -22 27 C-21.731875 26.360625 -21.46375 25.72125 -21.1875 25.0625 C-20 23 -20 23 -17 22 C-16.31092795 20.67810669 -15.64720427 19.34288825 -15 18 C-13.81299025 16.75022882 -12.57884269 15.54431447 -11.3125 14.375 C-7.38107239 10.5865334 -4.46007238 6.50709753 -1.54296875 1.90625 C-1.03378906 1.2771875 -0.52460938 0.648125 0 0 Z " fill="#A85DD2" transform="translate(505,470)"/>
<path d="M0 0 C1.43836751 0.11458693 2.87570966 0.24209116 4.3125 0.375 C5.51326172 0.47941406 5.51326172 0.47941406 6.73828125 0.5859375 C9 1 9 1 12 3 C12.72006795 5.97628085 13.20031672 8.02470761 13 11 C11.30223116 13.45233277 10.08047469 14.5807858 7.30859375 15.65625 C3.99330025 16.14989776 1.05178655 15.58222566 -2.25 15.0625 C-3.51328125 14.86785156 -4.7765625 14.67320312 -6.078125 14.47265625 C-7.04234375 14.31667969 -8.0065625 14.16070313 -9 14 C-7 12 -7 12 -3.5234375 11.8046875 C-2.14049032 11.81798507 -0.75761346 11.84183768 0.625 11.875 C1.33140625 11.88402344 2.0378125 11.89304687 2.765625 11.90234375 C4.51056098 11.92592397 6.25532295 11.96179539 8 12 C8.66 10.02 9.32 8.04 10 6 C7.69 6 5.38 6 3 6 C3 5.34 3 4.68 3 4 C1.68 3.67 0.36 3.34 -1 3 C-0.67 2.01 -0.34 1.02 0 0 Z " fill="#5544CF" transform="translate(411,501)"/>
<path d="M0 0 C0.99 0.33 1.98 0.66 3 1 C0.42811998 8.50250082 -2.96252423 14.86484428 -7.4375 21.375 C-7.89165283 22.04015625 -8.34580566 22.7053125 -8.8137207 23.390625 C-11.85335432 27.70711059 -15.08778105 31.4454382 -19 35 C-19.66 35 -20.32 35 -21 35 C-21.33 35.99 -21.66 36.98 -22 38 C-22.66 37.34 -23.32 36.68 -24 36 C-23.34773438 35.31035156 -22.69546875 34.62070312 -22.0234375 33.91015625 C-12.35372921 23.51308053 -6.14360142 12.70821107 0 0 Z " fill="#9847C1" transform="translate(504,445)"/>
<path d="M0 0 C0.99 0 1.98 0 3 0 C5.97 7.26 8.94 14.52 12 22 C12.78375 20.246875 13.5675 18.49375 14.375 16.6875 C15.76736522 13.57299885 17.10331936 10.84502097 19 8 C20.596892 12.77242581 19.10159349 15.97998408 17.0625 20.3125 C16.77181641 20.95767578 16.48113281 21.60285156 16.18164062 22.26757812 C15.46638913 23.85051177 14.73479676 25.42604405 14 27 C12.1953125 26.91796875 12.1953125 26.91796875 10 26 C8.75129453 23.74456309 7.79366856 21.69666365 6.875 19.3125 C6.37742187 18.09175781 5.87984375 16.87101562 5.3671875 15.61328125 C4.16223557 12.42876543 3.04752377 9.23905377 2 6 C1.62875 4.88625 1.2575 3.7725 0.875 2.625 C0.58625 1.75875 0.2975 0.8925 0 0 Z " fill="#FCFCFC" transform="translate(908,405)"/>
<path d="M0 0 C0.99 0 1.98 0 3 0 C-0.88580721 10.97398821 -10.22555517 19.02957582 -20.25 24.4375 C-23.26436271 25.85425047 -25.62712832 26.42160896 -29 26 C-29 25.34 -29 24.68 -29 24 C-27.40671875 23.27296875 -27.40671875 23.27296875 -25.78125 22.53125 C-14.87373436 17.41468515 -6.9251248 12.39373609 -1.10546875 1.46875 C-0.74066406 0.9840625 -0.37585938 0.499375 0 0 Z " fill="#5E3DBB" transform="translate(465,439)"/>
<path d="M0 0 C0.66 0.66 1.32 1.32 2 2 C1.67 2.66 1.34 3.32 1 4 C0.88252522 5.41882881 0.82314572 6.84271414 0.79467773 8.26611328 C0.77473251 9.14687531 0.75478729 10.02763733 0.73423767 10.93508911 C0.71752518 11.88721283 0.70081268 12.83933655 0.68359375 13.8203125 C0.66281265 14.79410858 0.64203156 15.76790466 0.62062073 16.77120972 C0.55511402 19.88906647 0.49623503 23.00700903 0.4375 26.125 C0.39431585 28.23568604 0.3507016 30.34636333 0.30664062 32.45703125 C0.19943153 37.6379295 0.09766722 42.81891356 0 48 C-0.66 48 -1.32 48 -2 48 C-2.050652 41.64627481 -2.08571322 35.29260156 -2.10986328 28.9387207 C-2.11992951 26.77659153 -2.13358354 24.614476 -2.15087891 22.45239258 C-2.17509978 19.34713375 -2.18647681 16.2420547 -2.1953125 13.13671875 C-2.20563507 12.16788254 -2.21595764 11.19904633 -2.22659302 10.20085144 C-2.22674408 9.3001442 -2.22689514 8.39943695 -2.22705078 7.47143555 C-2.231492 6.67867722 -2.23593323 5.88591888 -2.24050903 5.06913757 C-2 3 -2 3 0 0 Z " fill="#F7F7F7" transform="translate(801,404)"/>
<path d="M0 0 C0.66 0.99 1.32 1.98 2 3 C-9.31150875 7.41703007 -18.87834225 9.19551061 -31 9 C-31.33 8.01 -31.66 7.02 -32 6 C-30.69546875 5.90203125 -29.3909375 5.8040625 -28.046875 5.703125 C-18.157037 4.88370291 -9.22743365 3.86351897 0 0 Z " fill="#5144BC" transform="translate(449,471)"/>
<path d="M0 0 C0.66 0.66 1.32 1.32 2 2 C1.77598049 3.85829514 1.54165478 5.71589048 1.25732422 7.56591797 C0.66113615 13.20538195 1.38326442 18.9577213 1.77148438 24.59960938 C2.095094 30.24975902 1.96570319 34.67092633 0 40 C-0.33 40 -0.66 40 -1 40 C-2.97213015 26.68812151 -2.60919011 13.1857286 0 0 Z " fill="#2391E1" transform="translate(321,392)"/>
<path d="M0 0 C1.22203125 -0.00257813 2.4440625 -0.00515625 3.703125 -0.0078125 C6.75 0.125 6.75 0.125 8.75 1.125 C8.75 1.785 8.75 2.445 8.75 3.125 C7.86699219 3.09019531 6.98398437 3.05539062 6.07421875 3.01953125 C-5.32061628 2.7625049 -15.03748347 3.99833627 -24.25 11.125 C-25.26834392 12.10631323 -26.2740861 13.10148055 -27.25 14.125 C-27.25 10.125 -27.25 10.125 -25.3125 7.625 C-17.70572905 1.41539106 -9.65507306 -0.02054271 0 0 Z " fill="#FBFBFB" transform="translate(742.25,384.875)"/>
<path d="M0 0 C0.99 0.33 1.98 0.66 3 1 C3.042721 2.66611905 3.04063832 4.33382885 3 6 C1.38077903 7.61922097 -0.50366662 7.29897475 -2.7421875 7.46484375 C-3.72703125 7.54283203 -4.711875 7.62082031 -5.7265625 7.70117188 C-7.78638585 7.85578641 -9.84627936 8.0094698 -11.90625 8.16210938 C-18.70544976 8.70235587 -25.314343 9.64885427 -32 11 C-29.45941127 7.1891169 -28.42885027 7.07164899 -24 6 C-19.88398985 5.48751782 -15.76147071 5.17220225 -11.625 4.875 C-10.50738281 4.78863281 -9.38976562 4.70226562 -8.23828125 4.61328125 C-5.49262792 4.40207715 -2.74664107 4.19787013 0 4 C0 2.68 0 1.36 0 0 Z " fill="#FDFDFD" transform="translate(754,408)"/>
<path d="M0 0 C0.99 0 1.98 0 3 0 C4.21875 1.765625 4.21875 1.765625 5.5 4.25 C8.0872606 8.80202241 11.02697585 12.55274768 14.5625 16.375 C15.02140625 16.87418945 15.4803125 17.37337891 15.953125 17.88769531 C18.13491588 20.20545741 20.33241305 22.26062646 22.83984375 24.2265625 C23.55269531 24.81179688 24.26554687 25.39703125 25 26 C25 26.66 25 27.32 25 28 C25.99 28.33 26.98 28.66 28 29 C27.01 29.66 26.02 30.32 25 31 C22 28 19 25 16 22 C15.17242187 21.19949219 14.34484375 20.39898437 13.4921875 19.57421875 C10.8588173 16.85417022 8.58599381 14.02617851 6.3125 11 C5.16201172 9.4840625 5.16201172 9.4840625 3.98828125 7.9375 C2.21191873 5.31309014 1.02521244 2.9824362 0 0 Z " fill="#254BC3" transform="translate(333,464)"/>
<path d="M0 0 C-1.15192003 3.4557601 -1.91134634 4.19828537 -5 6 C-7.75 6.1875 -7.75 6.1875 -10 6 C-10.25265625 6.59039062 -10.5053125 7.18078125 -10.765625 7.7890625 C-12.1449731 10.25966701 -13.57517576 11.57950557 -15.75 13.375 C-18.42704908 15.62858859 -20.95183425 17.91287165 -23.375 20.4375 C-26 23 -26 23 -28 23 C-26.89004829 16.3841036 -20.85661079 12.28283826 -15.68359375 8.55078125 C-12.49201971 6.31141662 -9.25484835 4.14615172 -6 2 C-3 0 -3 0 0 0 Z " fill="#42B2EC" transform="translate(373,326)"/>
<path d="M0 0 C2.27689907 2.19256948 4.26876569 4.35323491 6.1875 6.875 C11.34218079 13.12070218 18.4475726 16.52829649 26 19 C25.67 19.99 25.34 20.98 25 22 C13.83870076 18.60095133 6.27206394 11.92398958 -1 3 C-0.67 2.01 -0.34 1.02 0 0 Z " fill="#2B51C9" transform="translate(381,443)"/>
<path d="M0 0 C0.60199219 0.3501416 1.20398438 0.7002832 1.82421875 1.06103516 C-1.04868498 2.35740031 -3.92446287 3.64726615 -6.80078125 4.93603516 C-7.60902344 5.30083984 -8.41726563 5.66564453 -9.25 6.04150391 C-21.25445268 11.4093486 -21.25445268 11.4093486 -27.17578125 11.06103516 C-27.17578125 10.40103516 -27.17578125 9.74103516 -27.17578125 9.06103516 C-26.10263672 8.73232422 -26.10263672 8.73232422 -25.0078125 8.39697266 C-17.98704645 6.16267971 -11.53483311 3.42319188 -4.98828125 0.03759766 C-2.17578125 -0.93896484 -2.17578125 -0.93896484 0 0 Z " fill="#6249D0" transform="translate(474.17578125,405.93896484375)"/>
<path d="M0 0 C1.1725131 0.95117134 2.33787015 1.91117009 3.5 2.875 C4.47453125 3.67550781 4.47453125 3.67550781 5.46875 4.4921875 C5.9740625 4.98976563 6.479375 5.48734375 7 6 C7 6.66 7 7.32 7 8 C7.56203125 8.24492187 8.1240625 8.48984375 8.703125 8.7421875 C11.41865854 10.22926539 13.46391438 12.04062782 15.75 14.125 C16.54921875 14.84945313 17.3484375 15.57390625 18.171875 16.3203125 C18.77515625 16.87460937 19.3784375 17.42890625 20 18 C19.67 18.99 19.34 19.98 19 21 C13.11458582 16.36175765 7.55315231 11.9760124 3 6 C2.401875 5.443125 1.80375 4.88625 1.1875 4.3125 C0 3 0 3 0 0 Z " fill="#1F50CA" transform="translate(352,468)"/>
<path d="M0 0 C0.33 0 0.66 0 1 0 C1.01981934 1.18029785 1.03963867 2.3605957 1.06005859 3.57666016 C1.13634656 7.97140201 1.22502784 12.36582276 1.31738281 16.76025391 C1.35557692 18.65927778 1.39044625 20.55837164 1.421875 22.45751953 C1.46773387 25.19328763 1.52569337 27.92857792 1.5859375 30.6640625 C1.60326431 31.93003769 1.60326431 31.93003769 1.62094116 33.22158813 C1.73590396 37.85243885 2.24306294 41.64156315 4 46 C4.66 46 5.32 46 6 46 C5.67 46.99 5.34 47.98 5 49 C0.19250018 45.54846167 0.19250018 45.54846167 -0.65879822 43.12298584 C-1.00801687 40.95011834 -1.08280933 38.98113574 -1.02172852 36.78222656 C-0.99158409 35.5514035 -0.99158409 35.5514035 -0.96083069 34.29571533 C-0.93379562 33.41953552 -0.90676056 32.54335571 -0.87890625 31.640625 C-0.85529526 30.73624695 -0.83168427 29.8318689 -0.80735779 28.90008545 C-0.73089281 26.01655712 -0.64679464 23.13330903 -0.5625 20.25 C-0.50926213 18.29298238 -0.45652185 16.33595116 -0.40429688 14.37890625 C-0.27530089 9.58576063 -0.13945947 4.79285213 0 0 Z " fill="#FCFBFC" transform="translate(859,404)"/>
<path d="M0 0 C0.83595703 0.00451172 1.67191406 0.00902344 2.53320312 0.01367188 C4.58466649 0.02539452 6.63609273 0.04332797 8.6875 0.0625 C9.0175 1.0525 9.3475 2.0425 9.6875 3.0625 C6.4390089 3.31799427 3.18904879 3.53726093 -0.0625 3.75 C-1.44308594 3.85924805 -1.44308594 3.85924805 -2.8515625 3.97070312 C-3.74101562 4.02548828 -4.63046875 4.08027344 -5.546875 4.13671875 C-6.36381836 4.19432373 -7.18076172 4.25192871 -8.02246094 4.3112793 C-10.87504558 4.00138764 -12.18673295 2.93001623 -14.3125 1.0625 C-9.54157044 -0.17152862 -4.88780554 -0.05015112 0 0 Z " fill="#5590E5" transform="translate(422.3125,353.9375)"/>
<path d="M0 0 C6.08233706 0.67581523 12.01314152 1.73638028 18 3 C18 4.32 18 5.64 18 7 C10.99995111 6.71311275 6.08973134 5.49595688 0 2 C0 1.34 0 0.68 0 0 Z " fill="#4545C0" transform="translate(393,498)"/>
<path d="M0 0 C4.60019611 0.5578596 7.63900603 2.44318964 11.5 4.9375 C15.26352389 7.36004867 18.77636829 9.49493721 23 11 C22.01 12.485 22.01 12.485 21 14 C13.64664487 10.18352481 6.52557362 6.1383584 0 1 C0 0.67 0 0.34 0 0 Z " fill="#3349BB" transform="translate(359,494)"/>
<path d="M0 0 C0.33 0 0.66 0 1 0 C1.33 4.29 1.66 8.58 2 13 C5.465 14.485 5.465 14.485 9 16 C9 18.97 9 21.94 9 25 C7.68 25.33 6.36 25.66 5 26 C5 25.34 5 24.68 5 24 C5.66 24 6.32 24 7 24 C7 22.02 7 20.04 7 18 C5.8553125 17.9071875 5.8553125 17.9071875 4.6875 17.8125 C2 17 2 17 0.3125 14.84375 C-1.27028057 11.4143921 -1.13738117 9.40924419 -0.6875 5.6875 C-0.50767578 4.08455078 -0.50767578 4.08455078 -0.32421875 2.44921875 C-0.21722656 1.64097656 -0.11023438 0.83273437 0 0 Z " fill="#FBFBFC" transform="translate(873,428)"/>
<path d="M0 0 C7.86165088 0.12887952 14.93194169 2.62374 22 6 C22.33 6.66 22.66 7.32 23 8 C19.41541948 9.19486017 18.88434977 8.75546886 15.5625 7.25 C9.85224332 4.82082138 4.0396404 3.36981535 -2 2 C-1.34 1.34 -0.68 0.68 0 0 Z " fill="#5BA8FB" transform="translate(437,328)"/>
<path d="M0 0 C3.7840436 1.45851787 4.95202126 3.21133726 6.8125 6.75 C9.24868552 11.06161223 11.72216494 13.89702324 15.6796875 16.84375 C16.11539062 17.2253125 16.55109375 17.606875 17 18 C17 18.66 17 19.32 17 20 C10.47143634 17.72919525 5.74755032 13.42695105 2.59765625 7.25 C1.64068129 4.8524542 0.76751697 2.46413344 0 0 Z " fill="#1D62CB" transform="translate(392,426)"/>
<path d="M0 0 C0.33 0 0.66 0 1 0 C1.25523437 1.19496094 1.25523437 1.19496094 1.515625 2.4140625 C3.21269894 9.83424747 4.6843444 15.89490559 11.25 20.375 C12.1575 20.91125 13.065 21.4475 14 22 C13.01 22.66 12.02 23.32 11 24 C9.72486237 22.92173635 8.45507431 21.83714481 7.1875 20.75 C6.47980469 20.14671875 5.77210938 19.5434375 5.04296875 18.921875 C1.08785403 15.20119347 -0.57057233 12.47520276 -1 7 C-0.7355646 4.65785793 -0.41755362 2.31974234 0 0 Z " fill="#1B66C7" transform="translate(400,416)"/>
<path d="M0 0 C0 0.99 0 1.98 0 3 C-1.6396875 3.4021875 -1.6396875 3.4021875 -3.3125 3.8125 C-7.4291979 4.98907554 -7.4291979 4.98907554 -10 8 C-10.73041853 11.61023099 -10.73041853 11.61023099 -11 15 C-11.99 15 -12.98 15 -14 15 C-13.65433301 6.91139241 -13.65433301 6.91139241 -11.25 3.5625 C-7.36431427 0.86410713 -4.76390013 0 0 0 Z " fill="#3449BD" transform="translate(424,406)"/>
<path d="M0 0 C0.33 0 0.66 0 1 0 C0.55761615 7.53216715 -0.13905228 14.6802723 -2 22 C-2.66 22 -3.32 22 -4 22 C-4.33 22.99 -4.66 23.98 -5 25 C-4.46021114 19.69207623 -3.8137484 14.40740017 -3.0625 9.125 C-2.90910156 8.03445313 -2.75570312 6.94390625 -2.59765625 5.8203125 C-2 3 -2 3 0 0 Z " fill="#9B49CF" transform="translate(523,420)"/>
<path d="M0 0 C0.66 0.66 1.32 1.32 2 2 C-0.00105548 4.00105548 -3.80668217 3.63573672 -6.5625 3.9375 C-12.18426629 4.58971468 -17.55319641 5.41134895 -23 7 C-22 4 -22 4 -20.20361328 2.85644531 C-16.5257337 1.42701904 -12.77638845 1.1691065 -8.875 0.75 C-7.63943359 0.5953125 -7.63943359 0.5953125 -6.37890625 0.4375 C-4.26068691 0.20175709 -2.12932475 0.09167347 0 0 Z " fill="#558FEF" transform="translate(425,366)"/>
<path d="M0 0 C0.66 0 1.32 0 2 0 C2 6.93 2 13.86 2 21 C1.34 21.33 0.68 21.66 0 22 C-2.62810898 14.11567307 -2.62810898 7.88432693 0 0 Z " fill="#FAFAFC" transform="translate(570,377)"/>
<path d="M0 0 C0.66 0.33 1.32 0.66 2 1 C1.51789063 2.02480469 1.03578125 3.04960937 0.5390625 4.10546875 C-0.09903194 5.46611131 -0.73704867 6.82679033 -1.375 8.1875 C-1.69210937 8.86103516 -2.00921875 9.53457031 -2.3359375 10.22851562 C-2.6453125 10.88916016 -2.9546875 11.54980469 -3.2734375 12.23046875 C-3.57604492 12.8754834 -3.87865234 13.52049805 -4.19042969 14.18505859 C-4.88138311 15.73407781 -5.47142998 17.32744759 -6.0390625 18.92578125 C-6.35617187 19.61027344 -6.67328125 20.29476563 -7 21 C-7.99 21.33 -8.98 21.66 -10 22 C-7.89234717 13.79214875 -4.68955822 7.03433733 0 0 Z " fill="#289BE8" transform="translate(370,380)"/>
<path d="M0 0 C2.82187936 2.82187936 4.05445328 6.26785001 5.625 9.875 C5.94984375 10.59558594 6.2746875 11.31617188 6.609375 12.05859375 C6.91617188 12.75855469 7.22296875 13.45851563 7.5390625 14.1796875 C7.81959473 14.81632324 8.10012695 15.45295898 8.38916016 16.10888672 C9 18 9 18 9 22 C8.34 22 7.68 22 7 22 C5.8507433 19.25138605 4.70548659 16.50122016 3.5625 13.75 C3.23701172 12.97269531 2.91152344 12.19539063 2.57617188 11.39453125 C2.26357422 10.64042969 1.95097656 9.88632812 1.62890625 9.109375 C1.1968689 8.07248535 1.1968689 8.07248535 0.75610352 7.01464844 C0.00540844 5.01441085 -0.60933147 3.1013705 -1 1 C-0.67 0.67 -0.34 0.34 0 0 Z " fill="#FAFAFA" transform="translate(894,405)"/>
<path d="M0 0 C0.66 0 1.32 0 2 0 C2.02692484 2.29160319 2.04636124 4.58329546 2.0625 6.875 C2.07410156 8.15117187 2.08570313 9.42734375 2.09765625 10.7421875 C2 14 2 14 1 16 C1.66 16 2.32 16 3 16 C2.67 17.98 2.34 19.96 2 22 C-0.76128496 17.02968708 -1.13886035 12.37730299 -1.125 6.75 C-1.12757813 5.69296875 -1.13015625 4.6359375 -1.1328125 3.546875 C-1 1 -1 1 0 0 Z " fill="#2678D7" transform="translate(359,410)"/>
<path d="M0 0 C0 0.33 0 0.66 0 1 C-7.26 1 -14.52 1 -22 1 C-22.33 0.34 -22.66 -0.32 -23 -1 C-15.21792944 -3.07521882 -7.6091761 -2.2545707 0 0 Z " fill="#F9F9FB" transform="translate(616,362)"/>
<path d="M0 0 C-1.48523895 3.99537963 -3.61987154 5.27127081 -7.3125 7.25 C-8.25738281 7.77078125 -9.20226562 8.2915625 -10.17578125 8.828125 C-13.05215886 10.02164268 -14.92581291 10.24638294 -18 10 C-18 9.34 -18 8.68 -18 8 C-15.3773768 6.66180502 -12.75213401 5.3292849 -10.125 4 C-9.00544922 3.42765625 -9.00544922 3.42765625 -7.86328125 2.84375 C-7.14785156 2.4828125 -6.43242187 2.121875 -5.6953125 1.75 C-5.03547363 1.41484375 -4.37563477 1.0796875 -3.69580078 0.734375 C-2 0 -2 0 0 0 Z " fill="#5444BD" transform="translate(454,455)"/>
<path d="M0 0 C2.64 0 5.28 0 8 0 C9.4606285 2.64738916 10 3.89448334 10 7 C8.35 7.66 6.7 8.32 5 9 C4.9175 8.4225 4.835 7.845 4.75 7.25 C3.79603637 4.38810912 2.1766193 3.03619225 0 1 C0 0.67 0 0.34 0 0 Z " fill="#2550D5" transform="translate(421,440)"/>
<path d="M0 0 C2.91517292 1.07401108 4.77810176 1.77810176 7 4 C7 4.99 7 5.98 7 7 C4.3125 9.3125 4.3125 9.3125 1 11 C-1.75 10.3125 -1.75 10.3125 -4 9 C-4.66 8.67 -5.32 8.34 -6 8 C-6 7.34 -6 6.68 -6 6 C-3.36 6.33 -0.72 6.66 2 7 C1.42655063 4.13275314 1.1385485 3.1385485 -1 1 C-0.67 0.67 -0.34 0.34 0 0 Z " fill="#5B92F1" transform="translate(437,392)"/>
<path d="M0 0 C6.44987367 1.20935131 10.64853903 4.07785562 15 9 C16.5 12.4375 16.5 12.4375 17 15 C14 14 14 14 12.8125 11.75 C9.57943788 6.84466436 4.17561403 4.53570352 -1 2 C-0.67 1.34 -0.34 0.68 0 0 Z " fill="#FCFBFC" transform="translate(753,386)"/>
<path d="M0 0 C1.32 0.33 2.64 0.66 4 1 C4.33 3.31 4.66 5.62 5 8 C4.01 8 3.02 8 2 8 C1.67 6.68 1.34 5.36 1 4 C-3.95 6.475 -3.95 6.475 -9 9 C-9 8.01 -9 7.02 -9 6 C-2.25 2 -2.25 2 0 2 C0 1.34 0 0.68 0 0 Z " fill="#FBFBFC" transform="translate(754,444)"/>
<path d="M0 0 C0.66 0.99 1.32 1.98 2 3 C1.04882866 4.1725131 0.08882991 5.33787015 -0.875 6.5 C-1.67550781 7.47453125 -1.67550781 7.47453125 -2.4921875 8.46875 C-3.23855469 9.22671875 -3.23855469 9.22671875 -4 10 C-4.66 10 -5.32 10 -6 10 C-6 11.98 -6 13.96 -6 16 C-7.32 15.67 -8.64 15.34 -10 15 C-7.32134512 9.12975632 -4.93912821 4.23353847 0 0 Z " fill="#34B0EE" transform="translate(402,395)"/>
<path d="M0 0 C2.41696872 -0.05411124 4.83271787 -0.09372278 7.25 -0.125 C7.93191406 -0.14175781 8.61382812 -0.15851563 9.31640625 -0.17578125 C13.0608235 -0.21213482 15.82352727 -0.07944349 19 2 C18 3 18 3 16.14233398 3.11352539 C15.35157471 3.10828857 14.56081543 3.10305176 13.74609375 3.09765625 C12.89208984 3.09443359 12.03808594 3.09121094 11.15820312 3.08789062 C10.26037109 3.07951172 9.36253906 3.07113281 8.4375 3.0625 C7.53580078 3.05798828 6.63410156 3.05347656 5.70507812 3.04882812 C3.46998686 3.03700225 1.23502563 3.0205222 -1 3 C-0.67 2.01 -0.34 1.02 0 0 Z " fill="#5CAAFC" transform="translate(414,326)"/>
<path d="M0 0 C4.06019667 4.06019667 4.3174375 10.49439799 5.046875 15.984375 C5 18 5 18 3 21 C2.30111323 18.25244513 1.6156012 15.50268803 0.9375 12.75 C0.73833984 11.97269531 0.53917969 11.19539063 0.33398438 10.39453125 C0.15029297 9.64042969 -0.03339844 8.88632812 -0.22265625 8.109375 C-0.39547119 7.41811523 -0.56828613 6.72685547 -0.74633789 6.01464844 C-1.03156637 3.74929191 -0.68076195 2.1631688 0 0 Z " fill="#774DD0" transform="translate(505,385)"/>
<path d="M0 0 C0 3.71946442 -0.88871542 4.40514236 -3.3125 7.125 C-3.92738281 7.82882812 -4.54226563 8.53265625 -5.17578125 9.2578125 C-7 11 -7 11 -10 12 C-10.33 12.99 -10.66 13.98 -11 15 C-11.66 14.34 -12.32 13.68 -13 13 C-11.21188257 11.01752198 -9.41974481 9.03896272 -7.625 7.0625 C-7.11710937 6.49853516 -6.60921875 5.93457031 -6.0859375 5.35351562 C-2.2265625 1.11328125 -2.2265625 1.11328125 0 0 Z " fill="#A653BE" transform="translate(493,468)"/>
<path d="M0 0 C0.99 0.33 1.98 0.66 3 1 C2.319375 1.61875 1.63875 2.2375 0.9375 2.875 C-2.9857278 6.76440687 -5.92503816 11.43629583 -9 16 C-9.66 15.34 -10.32 14.68 -11 14 C-7.71842138 8.82390176 -4.54075781 4.14010271 0 0 Z " fill="#3E98F1" transform="translate(389,378)"/>
<path d="M0 0 C-2.97735113 1.98490075 -5.07527818 2.68330394 -8.5 3.5625 C-11.37321572 4.30783687 -14.1830113 5.06100377 -17 6 C-17 5.01 -17 4.02 -17 3 C-10.92158211 0.15035942 -6.62420971 -1.72805471 0 0 Z " fill="#4743C2" transform="translate(449,417)"/>
<path d="M0 0 C0.99 0 1.98 0 3 0 C4.5 2.01171875 4.5 2.01171875 6 4.6875 C6.495 5.55761719 6.99 6.42773438 7.5 7.32421875 C7.995 8.20722656 8.49 9.09023438 9 10 C9.99491511 11.66970707 10.9933994 13.33731151 12 15 C11.01 15 10.02 15 9 15 C7.29083207 12.90412914 5.79742235 10.87014575 4.3125 8.625 C3.89677734 8.02171875 3.48105469 7.4184375 3.05273438 6.796875 C0 2.28544489 0 2.28544489 0 0 Z " fill="#2060CA" transform="translate(333,464)"/>
<path d="M0 0 C0.66 0 1.32 0 2 0 C2.0270817 2.72923388 2.04687847 5.45819637 2.0625 8.1875 C2.07087891 8.95642578 2.07925781 9.72535156 2.08789062 10.51757812 C2.10491934 14.48526789 1.98604115 18.12571234 1 22 C0.67 22 0.34 22 0 22 C-0.19696449 18.89635771 -0.38093262 15.79207808 -0.5625 12.6875 C-0.61857422 11.80642578 -0.67464844 10.92535156 -0.73242188 10.01757812 C-0.78076172 9.17001953 -0.82910156 8.32246094 -0.87890625 7.44921875 C-0.9260376 6.66893311 -0.97316895 5.88864746 -1.02172852 5.0847168 C-1 3 -1 3 0 0 Z " fill="#8D4FD7" transform="translate(509,403)"/>
<path d="M0 0 C0 0.66 0 1.32 0 2 C-0.99 2 -1.98 2 -3 2 C-3 2.66 -3 3.32 -3 4 C-2.34 4 -1.68 4 -1 4 C-0.67 5.65 -0.34 7.3 0 9 C-2.475 8.01 -2.475 8.01 -5 7 C-5 6.34 -5 5.68 -5 5 C-6.9600281 3.36323743 -6.9600281 3.36323743 -9 2 C-3.375 -1.125 -3.375 -1.125 0 0 Z " fill="#7A6BC5" transform="translate(460,497)"/>
<path d="M0 0 C0.66 0.33 1.32 0.66 2 1 C1.68349428 3.95405337 1.04226918 4.95897403 -1.125 7.0625 C-4.3450038 9.23250256 -7.39186269 10.58504419 -11 12 C-11.33 11.01 -11.66 10.02 -12 9 C-9.09399739 7.74335022 -7.20395416 7 -4 7 C-4 6.34 -4 5.68 -4 5 C-3.02149805 3.97895449 -2.02019573 2.9793879 -1 2 C-0.67 1.34 -0.34 0.68 0 0 Z " fill="#FCFCFC" transform="translate(705,441)"/>
<path d="M0 0 C2.31 0 4.62 0 7 0 C5 2 5 2 3.015625 2.27734375 C0.72082541 2.83930989 0.72082541 2.83930989 -0.265625 5.50390625 C-0.59046875 6.51324219 -0.9153125 7.52257812 -1.25 8.5625 C-1.58515625 9.57441406 -1.9203125 10.58632813 -2.265625 11.62890625 C-2.50796875 12.41136719 -2.7503125 13.19382812 -3 14 C-3.99 14 -4.98 14 -6 14 C-5.52309796 12.37433394 -5.04340334 10.74948689 -4.5625 9.125 C-4.16224609 7.76761719 -4.16224609 7.76761719 -3.75390625 6.3828125 C-3 4 -3 4 -2 2 C-1.34 2 -0.68 2 0 2 C0 1.34 0 0.68 0 0 Z " fill="#6B45C4" transform="translate(472,425)"/>
<path d="M0 0 C0.99 0 1.98 0 3 0 C1.44298069 4.67105792 -1.08447373 8.08705685 -4 12 C-5.32 11.67 -6.64 11.34 -8 11 C-6.74131097 9.15830774 -5.46766474 7.32682969 -4.1875 5.5 C-3.47980469 4.4790625 -2.77210938 3.458125 -2.04296875 2.40625 C-1.36878906 1.6121875 -0.69460938 0.818125 0 0 Z " fill="#AF4CC8" transform="translate(505,470)"/>
<path d="M0 0 C2.0836309 0.14151828 4.16689938 0.28837936 6.25 0.4375 C7.99023438 0.55931641 7.99023438 0.55931641 9.765625 0.68359375 C12.30977376 0.93247787 14.55953248 1.28114942 17 2 C16.67 2.99 16.34 3.98 16 5 C10.27601207 4.25339288 4.65146223 3.17122859 -1 2 C-0.67 1.34 -0.34 0.68 0 0 Z " fill="#5A9BF0" transform="translate(425,313)"/>
<path d="M0 0 C1.125 1.5 1.125 1.5 2 4 C1.57440494 5.93154682 1.13624919 7.86307536 0.58203125 9.76171875 C-0.37739613 13.45132873 -0.66665219 17.21036174 -1 21 C-1.33 21 -1.66 21 -2 21 C-2.19401633 19.18818595 -2.38004375 17.37551468 -2.5625 15.5625 C-2.66691406 14.55316406 -2.77132813 13.54382813 -2.87890625 12.50390625 C-2.93884766 11.26447266 -2.93884766 11.26447266 -3 10 C-2.67 9.67 -2.34 9.34 -2 9 C-1.66073053 6.66752239 -1.32759934 4.33414529 -1 2 C-0.67 1.34 -0.34 0.68 0 0 Z " fill="#22A1EB" transform="translate(336,387)"/>
<path d="M0 0 C4.95 0 9.9 0 15 0 C15 0.66 15 1.32 15 2 C13.27185839 2.19672365 11.54240803 2.38196799 9.8125 2.5625 C8.84957031 2.66691406 7.88664063 2.77132813 6.89453125 2.87890625 C4.05766623 2.99758751 1.74576329 2.67765639 -1 2 C-0.67 1.34 -0.34 0.68 0 0 Z " fill="#F9FAFA" transform="translate(727,452)"/>
<path d="M0 0 C0.66 0.33 1.32 0.66 2 1 C-0.97 7.93 -0.97 7.93 -4 15 C-4.66 14.67 -5.32 14.34 -6 14 C-5.125 9.25 -5.125 9.25 -4 7 C-3.34 7 -2.68 7 -2 7 C-2 5.02 -2 3.04 -2 1 C-1.34 0.67 -0.68 0.34 0 0 Z " fill="#F9F9F9" transform="translate(954,387)"/>
<path d="M0 0 C11.52164009 -0.3690205 11.52164009 -0.3690205 17 2 C16.67 2.66 16.34 3.32 16 4 C10.72 3.34 5.44 2.68 0 2 C0 1.34 0 0.68 0 0 Z " fill="#54A6F3" transform="translate(417,388)"/>
<path d="M0 0 C5.5952381 0.5952381 5.5952381 0.5952381 8 3 C8 6 8 6 7 9 C6.67 8.34 6.34 7.68 6 7 C5.34 7 4.68 7 4 7 C2.2856382 5.04072937 0.61594832 3.04119788 -1 1 C-0.67 0.67 -0.34 0.34 0 0 Z " fill="#5D5BD4" transform="translate(449,500)"/>
<path d="M0 0 C0.680625 0.70125 1.36125 1.4025 2.0625 2.125 C5.20780513 5.27934337 8.5888386 8.13934304 12 11 C11.34 11.66 10.68 12.32 10 13 C1.3690205 5.88610478 1.3690205 5.88610478 -1 1 C-0.67 0.67 -0.34 0.34 0 0 Z " fill="#235AC2" transform="translate(372,453)"/>
<path d="M0 0 C0.66 0 1.32 0 2 0 C2.598125 0.928125 3.19625 1.85625 3.8125 2.8125 C6.00696913 6.01015502 7.58693721 7.29346861 11 9 C10.67 9.99 10.34 10.98 10 12 C5.32751069 9.17477391 2.34003602 6.32239956 -1 2 C-0.67 1.34 -0.34 0.68 0 0 Z " fill="#FCFCFC" transform="translate(713,441)"/>
<path d="M0 0 C1.44277632 2.84655869 2.81175104 5.71639675 4.125 8.625 C4.47820312 9.40101563 4.83140625 10.17703125 5.1953125 10.9765625 C6 13 6 13 6 15 C4.1875 14.5 4.1875 14.5 2 13 C-0.02846155 9.36022021 -1.12138444 6.1652906 -0.6875 2 C-0.460625 1.34 -0.23375 0.68 0 0 Z " fill="#2366CB" transform="translate(374,427)"/>
<path d="M0 0 C1.32 0.33 2.64 0.66 4 1 C1.03 3.97 -1.94 6.94 -5 10 C-5.66 9.01 -6.32 8.02 -7 7 C-5.93283928 5.79794536 -4.84561663 4.61367667 -3.75 3.4375 C-3.14671875 2.77621094 -2.5434375 2.11492187 -1.921875 1.43359375 C-1.28765625 0.96050781 -0.6534375 0.48742187 0 0 Z " fill="#A758B9" transform="translate(496,482)"/>
<path d="M0 0 C1.09570312 0.00902344 2.19140625 0.01804687 3.3203125 0.02734375 C4.16335938 0.03894531 5.00640625 0.05054688 5.875 0.0625 C6.205 1.3825 6.535 2.7025 6.875 4.0625 C6.215 4.0625 5.555 4.0625 4.875 4.0625 C4.875 3.4025 4.875 2.7425 4.875 2.0625 C1.245 2.0625 -2.385 2.0625 -6.125 2.0625 C-6.125 2.7225 -6.125 3.3825 -6.125 4.0625 C-6.785 4.0625 -7.445 4.0625 -8.125 4.0625 C-8.125 3.0725 -8.125 2.0825 -8.125 1.0625 C-5.36047967 -0.31976016 -3.0788637 -0.03275387 0 0 Z " fill="#7B57D7" transform="translate(478.125,422.9375)"/>
<path d="M0 0 C0.66 0.66 1.32 1.32 2 2 C1.24275352 3.98440482 0.46877038 5.96243005 -0.3125 7.9375 C-0.74175781 9.03964844 -1.17101562 10.14179688 -1.61328125 11.27734375 C-3 14 -3 14 -6 15 C-3.10933941 4.44191344 -3.10933941 4.44191344 0 0 Z " fill="#F9F9F9" transform="translate(946,405)"/>
<path d="M0 0 C-1 3 -1 3 -3.1875 4.25 C-7.13354522 5.30227872 -10.3534405 4.82327975 -14 3 C-14 2.34 -14 1.68 -14 1 C-13.13375 1.20625 -12.2675 1.4125 -11.375 1.625 C-7.04564341 2.10603962 -4.125034 0 0 0 Z " fill="#4551C4" transform="translate(440,407)"/>
<path d="M0 0 C5.44208234 0.34013015 8.93668198 3.70296528 13 7 C12.67 7.99 12.34 8.98 12 10 C11.13375 9.236875 10.2675 8.47375 9.375 7.6875 C6.46399345 5.24779927 3.47056439 3.57001723 0 2 C0 1.34 0 0.68 0 0 Z " fill="#FBFCFC" transform="translate(694,388)"/>
<path d="M0 0 C0.66 0 1.32 0 2 0 C4.04291409 4.08582818 4.12649041 6.58791254 3 11 C1.9375 13.375 1.9375 13.375 1 15 C0.34 14.34 -0.32 13.68 -1 13 C-0.62875 12.13375 -0.2575 11.2675 0.125 10.375 C1.14440048 6.44302674 0.57312496 4.67062491 -1 1 C-0.67 0.67 -0.34 0.34 0 0 Z " fill="#FBFBFB" transform="translate(909,442)"/>
<path d="M0 0 C2.0425937 1.02129685 4.01614158 2.01041392 5.9375 3.25 C8.10346355 4.27527319 8.10346355 4.27527319 10.75 3.125 C11.86375 2.568125 11.86375 2.568125 13 2 C12 5 12 5 9 7 C7.68 7 6.36 7 5 7 C5 6.34 5 5.68 5 5 C4.360625 4.731875 3.72125 4.46375 3.0625 4.1875 C1 3 1 3 0 0 Z " fill="#FDFDFD" transform="translate(717,398)"/>
<path d="M0 0 C4.29 0.66 8.58 1.32 13 2 C12.67 2.66 12.34 3.32 12 4 C8.7 4 5.4 4 2 4 C1.34 2.68 0.68 1.36 0 0 Z " fill="#3A4AC3" transform="translate(406,463)"/>
<path d="M0 0 C0.99 0.33 1.98 0.66 3 1 C-0.16952847 4.26008643 -3.39937989 7.22237877 -7 10 C-7.66 9.67 -8.32 9.34 -9 9 C-6.33224795 5.44299727 -3.7174905 2.478327 0 0 Z " fill="#795BD3" transform="translate(493,376)"/>
<path d="M0 0 C0.66 0 1.32 0 2 0 C0.23186986 5.62586863 -3.16760844 8.77840563 -8 12 C-8 11.01 -8 10.02 -8 9 C-6.68 8.34 -5.36 7.68 -4 7 C-4 6.34 -4 5.68 -4 5 C-3.34 5 -2.68 5 -2 5 C-1.855625 4.360625 -1.71125 3.72125 -1.5625 3.0625 C-1 1 -1 1 0 0 Z " fill="#FAFAFA" transform="translate(636,437)"/>
<path d="M0 0 C4.75481646 0.57634139 7.97048212 2.55068521 12 5 C12 5.66 12 6.32 12 7 C12.66 7.33 13.32 7.66 14 8 C10.2397015 7.41892368 7.46964968 6.34800504 4.1875 4.4375 C3.39730469 3.98246094 2.60710938 3.52742188 1.79296875 3.05859375 C1.20128906 2.70925781 0.60960937 2.35992187 0 2 C0 1.34 0 0.68 0 0 Z " fill="#F8F9FB" transform="translate(619,378)"/>
<path d="M0 0 C1.18771723 3.42943519 0.80226223 5.37784675 -0.4375 8.75 C-0.72496094 9.54921875 -1.01242187 10.3484375 -1.30859375 11.171875 C-1.53675781 11.77515625 -1.76492188 12.3784375 -2 13 C-2.99 12.67 -3.98 12.34 -5 12 C-4.54965877 10.37276701 -4.08944646 8.74826336 -3.625 7.125 C-3.36976563 6.22007812 -3.11453125 5.31515625 -2.8515625 4.3828125 C-2 2 -2 2 0 0 Z " fill="#A03FC8" transform="translate(519,442)"/>
<path d="M0 0 C3.96690692 3.37187088 6.3739564 8.12186919 8 13 C3.77825859 11.49223521 2.11282476 8.84835938 0 5 C-0.25 2.125 -0.25 2.125 0 0 Z " fill="#1D61CE" transform="translate(344,455)"/>
<path d="M0 0 C0.66 0.66 1.32 1.32 2 2 C0.35 5.63 -1.3 9.26 -3 13 C-3.99 12.67 -4.98 12.34 -6 12 C-4.02 8.04 -2.04 4.08 0 0 Z " fill="#FBFBFB" transform="translate(932,438)"/>
<path d="M0 0 C3 3 6 6 9 9 C5.49588735 8.6814443 3.4159895 8.30932553 0.5625 6.1875 C-1 4 -1 4 -0.75 1.75 C-0.5025 1.1725 -0.255 0.595 0 0 Z " fill="#3F41B4" transform="translate(412,421)"/>
<path d="M0 0 C1.670625 0.061875 1.670625 0.061875 3.375 0.125 C3.375 0.785 3.375 1.445 3.375 2.125 C6.345 2.125 9.315 2.125 12.375 2.125 C7.7233678 4.4508161 6.13555527 4.08509255 1.125 3.25 C-0.13828125 3.04632812 -1.4015625 2.84265625 -2.703125 2.6328125 C-3.66734375 2.46523438 -4.6315625 2.29765625 -5.625 2.125 C-3.625 0.125 -3.625 0.125 0 0 Z " fill="#4B3DC9" transform="translate(407.625,512.875)"/>
<path d="M0 0 C-2.22825644 2.22825644 -3.65761628 2.69239369 -6.625 3.625 C-7.44226563 3.88539063 -8.25953125 4.14578125 -9.1015625 4.4140625 C-9.72804688 4.60742188 -10.35453125 4.80078125 -11 5 C-11.33 4.34 -11.66 3.68 -12 3 C-10.75823305 2.29773859 -9.50614401 1.61370891 -8.25 0.9375 C-7.20585937 0.36322266 -7.20585937 0.36322266 -6.140625 -0.22265625 C-3.63859372 -1.1312406 -2.4667645 -0.88336837 0 0 Z " fill="#48B2F7" transform="translate(391,333)"/>
<path d="M0 0 C0 0.99 0 1.98 0 3 C-4.455 4.485 -4.455 4.485 -9 6 C-9.33 5.01 -9.66 4.02 -10 3 C-5.05 1.515 -5.05 1.515 0 0 Z " fill="#4FB6FC" transform="translate(403,327)"/>
<path d="M0 0 C3.43595166 1.52708963 6.11912454 3.59927045 9 6 C8.67 6.99 8.34 7.98 8 9 C5.03 6.69 2.06 4.38 -1 2 C-0.67 1.34 -0.34 0.68 0 0 Z " fill="#2755B7" transform="translate(363,480)"/>
<path d="M0 0 C3.3 0.33 6.6 0.66 10 1 C10.33 1.99 10.66 2.98 11 4 C7.37 3.67 3.74 3.34 0 3 C0 2.01 0 1.02 0 0 Z " fill="#3B3DC5" transform="translate(407,476)"/>
<path d="M0 0 C3.25524265 3.02272532 5.61820737 6.25718301 8 10 C5 10 5 10 3.359375 8.57421875 C2.82828125 7.95160156 2.2971875 7.32898438 1.75 6.6875 C1.20859375 6.07261719 0.6671875 5.45773437 0.109375 4.82421875 C-0.25671875 4.22222656 -0.6228125 3.62023437 -1 3 C-0.67 2.01 -0.34 1.02 0 0 Z " fill="#235BCB" transform="translate(381,443)"/>
<path d="M0 0 C3 1 3 1 4.6875 3.8125 C6 7 6 7 6 11 C5.34 11 4.68 11 4 11 C3.32880451 9.5437455 2.66318193 8.08492133 2 6.625 C1.62875 5.81289063 1.2575 5.00078125 0.875 4.1640625 C0 2 0 2 0 0 Z " fill="#FBFBFC" transform="translate(902,428)"/>
<path d="M0 0 C0.33 0 0.66 0 1 0 C1.33951619 1.56116819 1.67132544 3.12401338 2 4.6875 C2.185625 5.55761719 2.37125 6.42773438 2.5625 7.32421875 C2.98972047 9.93712964 3.07616201 12.35813038 3 15 C0 13 0 13 -0.75 10.3125 C-1.02210579 6.70709824 -0.63901812 3.55010066 0 0 Z " fill="#1A7ACE" transform="translate(400,416)"/>
<path d="M0 0 C2.22825644 2.22825644 2.69239369 3.65761628 3.625 6.625 C3.88539063 7.44226563 4.14578125 8.25953125 4.4140625 9.1015625 C4.60742188 9.72804688 4.80078125 10.35453125 5 11 C4.01 11 3.02 11 2 11 C-1.07692308 4.6 -1.07692308 4.6 -0.6875 1.5625 C-0.460625 1.046875 -0.23375 0.53125 0 0 Z " fill="#F9F9FA" transform="translate(903,388)"/>
<path d="M0 0 C0 0.66 0 1.32 0 2 C-5.445 3.485 -5.445 3.485 -11 5 C-10 2 -10 2 -8.3125 0.8125 C-5.45030907 -0.19313465 -3.01172092 -0.13689641 0 0 Z " fill="#4EA1F9" transform="translate(413,368)"/>
<path d="M0 0 C0.66 0.66 1.32 1.32 2 2 C1.01 4.97 0.02 7.94 -1 11 C-1.66 11 -2.32 11 -3 11 C-4 8 -4 8 -3.22265625 5.95703125 C-2.83980469 5.24933594 -2.45695312 4.54164063 -2.0625 3.8125 C-1.68222656 3.09707031 -1.30195313 2.38164062 -0.91015625 1.64453125 C-0.60980469 1.10183594 -0.30945313 0.55914062 0 0 Z " fill="#2990E4" transform="translate(376,396)"/>
<path d="M0 0 C4.09176955 0.30309404 7.46165096 0.87699058 11 3 C11 3.33 11 3.66 11 4 C6.62065881 3.48041715 2.31196609 2.94324258 -2 2 C-1.34 1.34 -0.68 0.68 0 0 Z " fill="#558FEF" transform="translate(432,368)"/>
<path d="M0 0 C1.875 0.25 1.875 0.25 4 1 C5.25 3.0625 5.25 3.0625 6 5 C3.69 5.33 1.38 5.66 -1 6 C-0.67 4.02 -0.34 2.04 0 0 Z " fill="#6D6CCB" transform="translate(456,505)"/>
<path d="M0 0 C5.61 0 11.22 0 17 0 C17 0.33 17 0.66 17 1 C16.00419922 1.09087891 16.00419922 1.09087891 14.98828125 1.18359375 C8.45091919 1.79863507 8.45091919 1.79863507 2 3 C2 2.34 2 1.68 2 1 C1.34 0.67 0.68 0.34 0 0 Z " fill="#F7F7F8" transform="translate(593,452)"/>
<path d="M0 0 C0.33 0 0.66 0 1 0 C1.66 4.95 2.32 9.9 3 15 C2.01 15 1.02 15 0 15 C-1.2063366 9.77254141 -0.75612577 5.23471686 0 0 Z " fill="#1D99E1" transform="translate(334,421)"/>
<path d="M0 0 C0.86625 0.37125 0.86625 0.37125 1.75 0.75 C0.76 0.75 -0.23 0.75 -1.25 0.75 C-1.4975 1.513125 -1.745 2.27625 -2 3.0625 C-3.35995558 5.9864045 -4.56585826 7.05004356 -7.25 8.75 C-6.89947365 5.59526281 -6.38480924 3.9266466 -4.4375 1.375 C-2.25 -0.25 -2.25 -0.25 0 0 Z " fill="#F7F7F9" transform="translate(660.25,392.25)"/>
<path d="M0 0 C2.64 1.32 5.28 2.64 8 4 C8 4.99 8 5.98 8 7 C4.7 5.35 1.4 3.7 -2 2 C-1.34 1.34 -0.68 0.68 0 0 Z " fill="#6B8EEE" transform="translate(460,335)"/>
<path d="M0 0 C1.48199902 0.44909061 2.96055236 0.90956564 4.4375 1.375 C5.26121094 1.63023437 6.08492188 1.88546875 6.93359375 2.1484375 C9 3 9 3 10 5 C7 6 7 6 4.95703125 5.22265625 C4.24933594 4.83980469 3.54164063 4.45695312 2.8125 4.0625 C2.09707031 3.68222656 1.38164062 3.30195313 0.64453125 2.91015625 C0.10183594 2.60980469 -0.44085938 2.30945313 -1 2 C-0.67 1.34 -0.34 0.68 0 0 Z " fill="#619AF6" transform="translate(450,331)"/>
<path d="M0 0 C0.33 0 0.66 0 1 0 C2.20577428 4.94367454 1.6290678 8.20862412 0 13 C-0.33 13 -0.66 13 -1 13 C-1.22151549 11.20991533 -1.42682213 9.41781838 -1.625 7.625 C-1.74101562 6.62726563 -1.85703125 5.62953125 -1.9765625 4.6015625 C-1.98429687 3.74304688 -1.99203125 2.88453125 -2 2 C-1.34 1.34 -0.68 0.68 0 0 Z " fill="#1992E3" transform="translate(321,419)"/>
<path d="M0 0 C0.66 0.66 1.32 1.32 2 2 C1.67 2.66 1.34 3.32 1 4 C0.34 4 -0.32 4 -1 4 C-1.1546875 4.8971875 -1.1546875 4.8971875 -1.3125 5.8125 C-2.08876455 8.28243264 -3.07088921 9.32251235 -5 11 C-4.46884894 6.48521602 -2.63379708 3.65333143 0 0 Z " fill="#2CB5F3" transform="translate(405,403)"/>
<path d="M0 0 C0.33 0.66 0.66 1.32 1 2 C2.3153341 2.70151152 3.65117592 3.36525925 5 4 C5.99 4.66 6.98 5.32 8 6 C7.67 6.99 7.34 7.98 7 9 C5.8225266 8.26708288 4.65823146 7.51296199 3.5 6.75 C2.52546875 6.12351562 2.52546875 6.12351562 1.53125 5.484375 C1.0259375 4.99453125 0.520625 4.5046875 0 4 C0 2.68 0 1.36 0 0 Z " fill="#F8F9F9" transform="translate(573,400)"/>
<path d="M0 0 C2.5 2.25 2.5 2.25 5 5 C5 6.32 5 7.64 5 9 C0.125 4.375 0.125 4.375 -1 1 C-0.67 0.67 -0.34 0.34 0 0 Z " fill="#7164E4" transform="translate(501,353)"/>
<path d="M0 0 C0.66 0.99 1.32 1.98 2 3 C-2.455 4.485 -2.455 4.485 -7 6 C-6.67 4.68 -6.34 3.36 -6 2 C-2.9375 0.75 -2.9375 0.75 0 0 Z " fill="#5035BE" transform="translate(449,471)"/>
<path d="M0 0 C1.875 0.25 1.875 0.25 4 1 C5.3125 2.8125 5.3125 2.8125 6 5 C5.625 7.25 5.625 7.25 5 9 C2.67527795 6.14693203 1.2491742 3.45925163 0 0 Z " fill="#1956DB" transform="translate(362,439)"/>
<path d="M0 0 C-2.06756277 2.7972908 -3.14440371 3.02692273 -6.6875 3.6875 C-7.780625 3.790625 -8.87375 3.89375 -10 4 C-10 3.34 -10 2.68 -10 2 C-8.71211992 1.46987262 -7.41953322 0.9511671 -6.125 0.4375 C-5.40570313 0.14746094 -4.68640625 -0.14257812 -3.9453125 -0.44140625 C-2 -1 -2 -1 0 0 Z " fill="#5652C8" transform="translate(457,413)"/>
<path d="M0 0 C0.66 0.99 1.32 1.98 2 3 C-2.455 4.485 -2.455 4.485 -7 6 C-6 3 -6 3 -2.9375 1.3125 C-1.968125 0.879375 -0.99875 0.44625 0 0 Z " fill="#5447D6" transform="translate(463,409)"/>
<path d="M0 0 C-2.6855594 2.6855594 -5.37621328 3.06049974 -9 4 C-9 3.01 -9 2.02 -9 1 C-5.57367167 -0.61798838 -3.61944899 -1.34053666 0 0 Z " fill="#5759C6" transform="translate(460,401)"/>
<path d="M0 0 C0.99 0.66 1.98 1.32 3 2 C-1.455 4.97 -1.455 4.97 -6 8 C-5.67 6.68 -5.34 5.36 -5 4 C-4.01 3.67 -3.02 3.34 -2 3 C-2 2.34 -2 1.68 -2 1 C-1.34 0.67 -0.68 0.34 0 0 Z " fill="#655EE8" transform="translate(468,377)"/>
<path d="M0 0 C2.64 0.99 5.28 1.98 8 3 C8 3.66 8 4.32 8 5 C3.545 4.01 3.545 4.01 -1 3 C-0.67 2.01 -0.34 1.02 0 0 Z " fill="#FAFCFD" transform="translate(618,362)"/>
<path d="M0 0 C0.66 0.33 1.32 0.66 2 1 C0.6875 4.4375 0.6875 4.4375 -1 8 C-1.99 8.33 -2.98 8.66 -4 9 C-3.46930939 5.17902761 -2.50298434 2.93828597 0 0 Z " fill="#FBFBFB" transform="translate(922,462)"/>
<path d="M0 0 C0.99 0.33 1.98 0.66 3 1 C1.68 3.64 0.36 6.28 -1 9 C-1.66 9 -2.32 9 -3 9 C-2.01 6.03 -1.02 3.06 0 0 Z " fill="#FBFBFB" transform="translate(650,402)"/>
<path d="M0 0 C4.95 0.99 4.95 0.99 10 2 C9.01 2.99 8.02 3.98 7 5 C2.25 3.125 2.25 3.125 0 2 C0 1.34 0 0.68 0 0 Z " fill="#5298F6" transform="translate(431,398)"/>
<path d="M0 0 C0.66 0 1.32 0 2 0 C5.07692308 5.41538462 5.07692308 5.41538462 4.6875 8.375 C4.460625 8.91125 4.23375 9.4475 4 10 C0 4 0 4 0 0 Z " fill="#FCFCFD" transform="translate(888,394)"/>
<path d="M0 0 C2.64 0.66 5.28 1.32 8 2 C7.01 2.495 7.01 2.495 6 3 C6 3.66 6 4.32 6 5 C4.02 4.34 2.04 3.68 0 3 C0 2.01 0 1.02 0 0 Z " fill="#323FC9" transform="translate(387,495)"/>
<path d="M0 0 C0.33 0.66 0.66 1.32 1 2 C1.66 2.33 2.32 2.66 3 3 C2 4 2 4 -1.0625 4.0625 C-2.031875 4.041875 -3.00125 4.02125 -4 4 C-4.33 3.01 -4.66 2.02 -5 1 C-3.35 0.67 -1.7 0.34 0 0 Z " fill="#433CC5" transform="translate(435,463)"/>
<path d="M0 0 C0.99 0.33 1.98 0.66 3 1 C1.6875 4.4375 1.6875 4.4375 0 8 C-0.99 8.33 -1.98 8.66 -3 9 C-2.01 6.03 -1.02 3.06 0 0 Z " fill="#FDFDFD" transform="translate(925,452)"/>
<path d="M0 0 C0 0.99 0 1.98 0 3 C-3.3 3.33 -6.6 3.66 -10 4 C-9 2 -9 2 -6.6875 0.875 C-4 0 -4 0 0 0 Z " fill="#3D5ACB" transform="translate(424,406)"/>
<path d="M0 0 C0.66 0 1.32 0 2 0 C2.625 2.8125 2.625 2.8125 3 6 C2.01 7.485 2.01 7.485 1 9 C0.63877119 7.68942607 0.28619689 6.37646376 -0.0625 5.0625 C-0.35833984 3.96615234 -0.35833984 3.96615234 -0.66015625 2.84765625 C-0.77230469 2.23792969 -0.88445313 1.62820313 -1 1 C-0.67 0.67 -0.34 0.34 0 0 Z " fill="#FBFBFB" transform="translate(797,386)"/>
<path d="M0 0 C-0.33 0.99 -0.66 1.98 -1 3 C-4.5625 4.1875 -4.5625 4.1875 -8 5 C-8 4.01 -8 3.02 -8 2 C-5.09399739 0.74335022 -3.20395416 0 0 0 Z " fill="#4CA2F2" transform="translate(401,358)"/>
<path d="M0 0 C2.78211944 0.37596209 4.5879284 0.67318459 6.8125 2.4375 C8 4 8 4 8 6 C4.08597051 4.73058503 2.20927127 3.48832306 0 0 Z " fill="#5F5EEB" transform="translate(479,350)"/>
<path d="M0 0 C2.97903734 2.97903734 4 5.80285329 4 10 C3.34 10 2.68 10 2 10 C1.46987262 8.71211992 0.9511671 7.41953322 0.4375 6.125 C0.14746094 5.40570313 -0.14257812 4.68640625 -0.44140625 3.9453125 C-1 2 -1 2 0 0 Z " fill="#FAF9FB" transform="translate(649,430)"/>
<path d="M0 0 C1.875 0.625 1.875 0.625 4 2 C5.25 5.125 5.25 5.125 6 8 C4.125 7.375 4.125 7.375 2 6 C0.75 2.875 0.75 2.875 0 0 Z " fill="#1772C6" transform="translate(392,426)"/>
<path d="M0 0 C6.875 3.625 6.875 3.625 8 7 C4.65980694 6.40353695 2.49529367 5.31705841 0 3 C0 2.01 0 1.02 0 0 Z " fill="#F8F8FA" transform="translate(628,366)"/>
<path d="M0 0 C0 0.66 0 1.32 0 2 C0.99 2.33 1.98 2.66 3 3 C-3.4 4.35384615 -3.4 4.35384615 -6.4375 2.5625 C-6.953125 2.046875 -7.46875 1.53125 -8 1 C-5.23735711 0.40267181 -2.83967231 0 0 0 Z " fill="#4AA3F4" transform="translate(416,354)"/>
<path d="M0 0 C0.66 0.33 1.32 0.66 2 1 C1.3125 3.375 1.3125 3.375 0 6 C-2.625 7.3125 -2.625 7.3125 -5 8 C-3.35 5.36 -1.7 2.72 0 0 Z " fill="#AF42CA" transform="translate(496,461)"/>
<path d="M0 0 C2 3 2 3 2 6 C0.35 6.66 -1.3 7.32 -3 8 C-3.33 7.01 -3.66 6.02 -4 5 C-3.01 4.67 -2.02 4.34 -1 4 C-0.26676204 1.98491642 -0.26676204 1.98491642 0 0 Z " fill="#204DDF" transform="translate(429,441)"/>
<path d="M0 0 C0.99 0 1.98 0 3 0 C3 0.66 3 1.32 3 2 C3.66 2 4.32 2 5 2 C5 2.66 5 3.32 5 4 C5.66 4 6.32 4 7 4 C6.67 4.99 6.34 5.98 6 7 C1.125 3.375 1.125 3.375 0 0 Z " fill="#FAFBFB" transform="translate(654,442)"/>
<path d="M0 0 C0.99 0 1.98 0 3 0 C1.75023244 3.65316671 1.32901247 4.78065836 -2 7 C-1.125 2.25 -1.125 2.25 0 0 Z " fill="#5C36C3" transform="translate(465,439)"/>
<path d="M0 0 C4.29 0.33 8.58 0.66 13 1 C13 1.33 13 1.66 13 2 C6.565 2.495 6.565 2.495 0 3 C0 2.01 0 1.02 0 0 Z " fill="#4DBAF9" transform="translate(413,389)"/>
<path d="M0 0 C0.66 0 1.32 0 2 0 C2.66 2.31 3.32 4.62 4 7 C3.01 7 2.02 7 1 7 C0.34 5.02 -0.32 3.04 -1 1 C-0.67 0.67 -0.34 0.34 0 0 Z " fill="#7959D8" transform="translate(513,374)"/>
<path d="M0 0 C1.32 0.66 2.64 1.32 4 2 C0.04 3.98 0.04 3.98 -4 6 C-3 2 -3 2 0 0 Z " fill="#41ABF4" transform="translate(398,372)"/>
<path d="M0 0 C1.9375 0.6875 1.9375 0.6875 4 2 C4.75 4.625 4.75 4.625 5 7 C3.02 5.35 1.04 3.7 -1 2 C-0.67 1.34 -0.34 0.68 0 0 Z " fill="#7578E7" transform="translate(491,342)"/>
<path d="M0 0 C1.32 0.66 2.64 1.32 4 2 C2.68 2.33 1.36 2.66 0 3 C0 3.66 0 4.32 0 5 C-0.99 5.33 -1.98 5.66 -3 6 C-3 3 -3 3 -1.5 1.3125 C-0.7575 0.6628125 -0.7575 0.6628125 0 0 Z " fill="#3BBBF5" transform="translate(368,342)"/>
<path d="M0 0 C1.98 0.66 3.96 1.32 6 2 C5.67 2.99 5.34 3.98 5 5 C2.69 4.01 0.38 3.02 -2 2 C-1.34 1.34 -0.68 0.68 0 0 Z " fill="#6A8DEF" transform="translate(463,323)"/>
<path d="M0 0 C0.99 0.33 1.98 0.66 3 1 C3 1.66 3 2.32 3 3 C-1.455 3.495 -1.455 3.495 -6 4 C-4.03617993 2.49440461 -2.21736634 1.10868317 0 0 Z " fill="#9366D7" transform="translate(457,496)"/>
<path d="M0 0 C2.76276177 0.52268466 5.3260876 1.10869587 8 2 C8 2.99 8 3.98 8 5 C4.5625 4.1875 4.5625 4.1875 1 3 C0.67 2.01 0.34 1.02 0 0 Z " fill="#FBFBFD" transform="translate(578,448)"/>
<path d="M0 0 C-0.33 0.99 -0.66 1.98 -1 3 C-4.0625 4.1875 -4.0625 4.1875 -7 5 C-7 4.01 -7 3.02 -7 2 C-2.25 0 -2.25 0 0 0 Z " fill="#FCFCFC" transform="translate(626,448)"/>
<path d="M0 0 C0.66 0 1.32 0 2 0 C2 1.65 2 3.3 2 5 C2.66 5 3.32 5 4 5 C3.67 6.98 3.34 8.96 3 11 C0.87953208 7.46588679 0.46800711 4.05606165 0 0 Z " fill="#1B64DA" transform="translate(358,421)"/>
<path d="M0 0 C0.99 0.33 1.98 0.66 3 1 C1.515 4.465 1.515 4.465 0 8 C-0.66 7.01 -1.32 6.02 -2 5 C-1.125 2.3125 -1.125 2.3125 0 0 Z " fill="#FDFCFD" transform="translate(930,404)"/>
<path d="M0 0 C0.66 0 1.32 0 2 0 C0.25 5.75 0.25 5.75 -2 8 C-3 5 -3 5 -1.6875 2.3125 C-1.130625 1.549375 -0.57375 0.78625 0 0 Z " fill="#2FAEF5" transform="translate(341,376)"/>
<path d="M0 0 C0.66 0.33 1.32 0.66 2 1 C0.35 2.65 -1.3 4.3 -3 6 C-3.66 5.01 -4.32 4.02 -5 3 C-2.625 1.4375 -2.625 1.4375 0 0 Z " fill="#3DB0EF" transform="translate(390,362)"/>
<path d="M0 0 C0.99 0.33 1.98 0.66 3 1 C3 1.66 3 2.32 3 3 C-1.29 3 -5.58 3 -10 3 C-10 2.67 -10 2.34 -10 2 C-6.7 2 -3.4 2 0 2 C0 1.34 0 0.68 0 0 Z " fill="#5599F1" transform="translate(429,354)"/>
<path d="M0 0 C1.32 0.33 2.64 0.66 4 1 C1.03 3.475 1.03 3.475 -2 6 C-2.33 5.34 -2.66 4.68 -3 4 C-2.67 3.34 -2.34 2.68 -2 2 C-1.34 2 -0.68 2 0 2 C0 1.34 0 0.68 0 0 Z " fill="#32BEF6" transform="translate(361,348)"/>
<path d="M0 0 C4.455 0.99 4.455 0.99 9 2 C9 2.99 9 3.98 9 5 C7.35 4.67 5.7 4.34 4 4 C4 3.34 4 2.68 4 2 C2.68 1.67 1.36 1.34 0 1 C0 0.67 0 0.34 0 0 Z " fill="#599CF2" transform="translate(445,316)"/>
<path d="M0 0 C1.98 0.66 3.96 1.32 6 2 C5.67 2.99 5.34 3.98 5 5 C3.02 4.34 1.04 3.68 -1 3 C-0.67 2.01 -0.34 1.02 0 0 Z " fill="#2C42CB" transform="translate(401,460)"/>
<path d="M0 0 C1.98 0.66 3.96 1.32 6 2 C6 2.99 6 3.98 6 5 C3.69 4.01 1.38 3.02 -1 2 C-0.67 1.34 -0.34 0.68 0 0 Z " fill="#FBFCFC" transform="translate(662,448)"/>
<path d="M0 0 C1.20628008 2.33214148 2.1654738 4.49642139 3 7 C2.01 7.33 1.02 7.66 0 8 C-0.38063221 5.6739143 -0.71269945 3.33944736 -1 1 C-0.67 0.67 -0.34 0.34 0 0 Z " fill="#206FD1" transform="translate(374,427)"/>
<path d="M0 0 C1.61949011 2.57213134 2.04408751 3.67669159 1.625 6.75 C1.41875 7.4925 1.2125 8.235 1 9 C-0.61949011 6.42786866 -1.04408751 5.32330841 -0.625 2.25 C-0.41875 1.5075 -0.2125 0.765 0 0 Z " fill="#8856D2" transform="translate(519,388)"/>
<path d="M0 0 C1.98 0 3.96 0 6 0 C6.33 0.99 6.66 1.98 7 3 C4.36 2.67 1.72 2.34 -1 2 C-0.67 1.34 -0.34 0.68 0 0 Z " fill="#FCFCFC" transform="translate(821,385)"/>
<path d="M0 0 C1.98 0.66 3.96 1.32 6 2 C6 2.66 6 3.32 6 4 C3.03 3.505 3.03 3.505 0 3 C0 2.01 0 1.02 0 0 Z " fill="#5979E9" transform="translate(446,359)"/>
<path d="" fill="#000000" transform="translate(0,0)"/>
<path d="" fill="#808080" transform="translate(0,0)"/>
<path d="" fill="#555555" transform="translate(0,0)"/>
<path d="" fill="#555555" transform="translate(0,0)"/>
</svg>
